<svg width="287" height="203" viewBox="0 0 287 203" fill="none" xmlns="http://www.w3.org/2000/svg">
<path d="M6.1086 97.9051L15.5379 88.5627L89.881 162.638C90.6798 163.434 91.1277 164.513 91.1261 165.637C91.1245 166.761 90.6735 167.838 89.8725 168.632L80.4432 177.975C79.6421 178.768 78.5565 179.213 77.4252 179.212C76.2939 179.21 75.2096 178.762 74.4107 177.966L6.09154 109.893C4.4939 108.301 3.59815 106.143 3.60135 103.895C3.60455 101.647 4.50643 99.4925 6.1086 97.9051Z" fill="url(#paint0_linear_30_82)"/>
<path d="M15.4377 119.255L6.02392 109.875C4.42628 108.283 3.53053 106.126 3.53373 103.878C3.53693 101.63 4.43881 99.4752 6.04098 97.8878L75.657 28.9133C76.4581 28.1196 77.5437 27.6746 78.675 27.6762C79.8063 27.6778 80.8907 28.1259 81.6895 28.9218L91.1144 38.3128C91.9132 39.1087 92.3611 40.1874 92.3595 41.3114C92.3579 42.4355 91.9069 43.5128 91.1058 44.3065L15.4377 119.255Z" fill="#FFB3BB"/>
<path d="M206.626 177.972L197.185 168.618C196.384 167.825 195.933 166.747 195.932 165.623C195.93 164.499 196.378 163.42 197.177 162.625L271.52 88.5488L280.96 97.9022C282.563 99.4896 283.464 101.644 283.468 103.892C283.471 106.141 282.575 108.298 280.977 109.89L212.658 177.963C211.859 178.759 210.775 179.207 209.644 179.209C208.513 179.21 207.427 178.765 206.626 177.972Z" fill="url(#paint1_linear_30_82)"/>
<path d="M195.847 38.379L205.261 28.9991C206.06 28.2032 207.144 27.7551 208.275 27.7535C209.407 27.7519 210.492 28.1969 211.293 28.9906L280.91 97.9652C282.512 99.5526 283.414 101.707 283.417 103.955C283.42 106.204 282.524 108.361 280.927 109.953L271.513 119.333L195.9 44.417C195.099 43.6232 194.648 42.5459 194.647 41.4218C194.645 40.2978 195.093 39.2191 195.892 38.4232L195.847 38.379Z" fill="#FFB3BB"/>
<path d="M183.97 5.71251L168.905 0.920296C167.307 0.41203 165.597 1.28703 165.085 2.87466L103.671 193.481C103.159 195.069 104.04 196.768 105.638 197.276L120.703 202.068C122.301 202.576 124.011 201.701 124.523 200.114L185.937 9.50747C186.449 7.91984 185.568 6.22078 183.97 5.71251Z" fill="url(#paint2_linear_30_82)"/>
<defs>
<linearGradient id="paint0_linear_30_82" x1="8.66347" y1="96.883" x2="93.1328" y2="180.811" gradientUnits="userSpaceOnUse">
<stop stop-color="#9D70EE"/>
<stop offset="0.526042" stop-color="#FFB3BB"/>
<stop offset="1" stop-color="#FFE399"/>
</linearGradient>
<linearGradient id="paint1_linear_30_82" x1="325.947" y1="87.308" x2="340.12" y2="152.342" gradientUnits="userSpaceOnUse">
<stop stop-color="#FFB3BB"/>
<stop offset="1" stop-color="#FFE399"/>
</linearGradient>
<linearGradient id="paint2_linear_30_82" x1="122.195" y1="186.507" x2="85.2264" y2="170.596" gradientUnits="userSpaceOnUse">
<stop offset="0.119792" stop-color="#7277ED"/>
<stop offset="0.53125" stop-color="#8DC8E8"/>
</linearGradient>
</defs>
</svg>
