<svg width="285" height="232" viewBox="0 0 285 232" fill="none" xmlns="http://www.w3.org/2000/svg">
<path d="M272.335 193.512C273.989 193.533 275.63 193.226 277.163 192.607C278.697 191.989 280.093 191.072 281.269 189.911C282.446 188.749 283.38 187.365 284.018 185.839C284.655 184.313 284.983 182.676 284.983 181.023C285.042 180.322 284.934 179.618 284.667 178.967C279.766 139.443 257.158 107.823 214.155 107.823C171.152 107.823 147.911 135.648 143.485 179.6C143.175 182.949 144.195 186.286 146.325 188.889C148.455 191.492 151.523 193.153 154.868 193.512H272.335Z" fill="url(#paint0_linear_30_75)"/>
<path opacity="0.8" d="M214.315 117.784C206.68 117.85 199.197 115.649 192.814 111.46L214.157 167.111L235.184 111.934C228.896 115.76 221.676 117.783 214.315 117.784Z" fill="#140035"/>
<path d="M214.313 117.783C236.23 117.783 253.996 100.016 253.996 78.0998C253.996 56.1836 236.23 38.417 214.313 38.417C192.397 38.417 174.631 56.1836 174.631 78.0998C174.631 100.016 192.397 117.783 214.313 117.783Z" fill="url(#paint1_linear_30_75)"/>
<path d="M192.496 231.93C197.486 231.93 202.271 229.948 205.799 226.419C209.328 222.891 211.31 218.106 211.31 213.116C211.388 212.38 211.388 211.638 211.31 210.903C203.879 151.774 170.52 104.502 106.332 104.502C42.1439 104.502 7.04597 145.292 0.0896109 211.219C-0.396602 216.205 1.10924 221.181 4.27852 225.062C7.4478 228.942 12.0232 231.411 17.0062 231.93H192.496Z" fill="url(#paint2_linear_30_75)"/>
<path opacity="0.8" d="M107.124 118.572C95.8943 118.494 84.9221 115.202 75.5039 109.086L107.124 192.088L138.743 109.719C129.227 115.541 118.28 118.606 107.124 118.572Z" fill="#140035"/>
<path d="M106.648 118.574C139.391 118.574 165.935 92.0305 165.935 59.2871C165.935 26.5437 139.391 0 106.648 0C73.9048 0 47.361 26.5437 47.361 59.2871C47.361 92.0305 73.9048 118.574 106.648 118.574Z" fill="url(#paint3_linear_30_75)"/>
<defs>
<linearGradient id="paint0_linear_30_75" x1="243.667" y1="187.166" x2="161.677" y2="65.7949" gradientUnits="userSpaceOnUse">
<stop stop-color="#7277ED"/>
<stop offset="0.651042" stop-color="#8DC8E8"/>
</linearGradient>
<linearGradient id="paint1_linear_30_75" x1="230.825" y1="111.904" x2="149.461" y2="38.9987" gradientUnits="userSpaceOnUse">
<stop stop-color="#7277ED"/>
<stop offset="0.651042" stop-color="#8DC8E8"/>
</linearGradient>
<linearGradient id="paint2_linear_30_75" x1="205.018" y1="208.421" x2="54.3623" y2="57.7524" gradientUnits="userSpaceOnUse">
<stop offset="0.0989583" stop-color="#9D70EE"/>
<stop offset="0.661458" stop-color="#FFB3BB"/>
<stop offset="1" stop-color="#FFE399"/>
</linearGradient>
<linearGradient id="paint3_linear_30_75" x1="162.373" y1="96.6987" x2="38.3952" y2="21.9502" gradientUnits="userSpaceOnUse">
<stop offset="0.0989583" stop-color="#9D70EE"/>
<stop offset="0.661458" stop-color="#FFB3BB"/>
<stop offset="1" stop-color="#FFE399"/>
</linearGradient>
</defs>
</svg>
