<svg width="285" height="221" viewBox="0 0 285 221" fill="none" xmlns="http://www.w3.org/2000/svg">
<path d="M228.692 107.02H57.5923V184.071C57.5923 204.088 95.8794 220.451 144.016 220.451C192.153 220.451 230.44 204.564 230.44 184.071L228.692 107.02Z" fill="url(#paint0_linear_30_46)"/>
<path d="M132.418 1.53156L5.32368 66.5083C2.88533 68.0244 1.11693 70.4133 0.378954 73.1881C-0.359026 75.9629 -0.0110325 78.9147 1.352 81.4418C2.18445 83.2994 3.57196 84.8533 5.32368 85.8901L132.418 141.176C134.251 141.958 136.223 142.361 138.216 142.361C140.209 142.361 142.182 141.958 144.015 141.176L278.734 85.5724C281.226 84.106 283.069 81.7507 283.895 78.9802C284.72 76.2097 284.465 73.2294 283.183 70.6388C282.273 68.5982 280.708 66.9205 278.734 65.8728L144.333 1.21383C142.452 0.363167 140.402 -0.0501757 138.339 0.00485574C136.275 0.0598872 134.251 0.581861 132.418 1.53156Z" fill="url(#paint1_linear_30_46)"/>
<path d="M250.774 129.261C249.421 126.042 248.401 123.256 247.12 121C238.08 105.072 223.995 92.6076 207.086 85.5724L151.8 62.5366L134.166 75.0871L189.769 98.7584C209.131 106.673 224.637 121.836 232.981 141.017C235.424 149.727 236.915 158.676 237.429 167.707M237.429 167.707L246.644 154.521L255.001 164.545L256.651 166.745C257.471 154.418 255.564 140.649 250.774 129.261L237.429 167.707Z" fill="url(#paint2_linear_30_46)"/>
<path d="M141.154 80.6477C152.911 80.6477 162.442 75.811 162.442 69.8447C162.442 63.8784 152.911 59.0417 141.154 59.0417C129.397 59.0417 119.866 63.8784 119.866 69.8447C119.866 75.811 129.397 80.6477 141.154 80.6477Z" fill="#140035"/>
<defs>
<linearGradient id="paint0_linear_30_46" x1="144.112" y1="106.48" x2="143.969" y2="244.064" gradientUnits="userSpaceOnUse">
<stop stop-color="#9D70EE"/>
<stop offset="0.630208" stop-color="#FFB3BB"/>
<stop offset="0.921875" stop-color="#FFE399"/>
</linearGradient>
<linearGradient id="paint1_linear_30_46" x1="141.91" y1="179.085" x2="141.91" y2="-11.7786" gradientUnits="userSpaceOnUse">
<stop stop-color="#FFE399"/>
<stop offset="0.421875" stop-color="#FFB3BB"/>
<stop offset="1" stop-color="#9D70EE"/>
</linearGradient>
<linearGradient id="paint2_linear_30_46" x1="221.021" y1="159.916" x2="112.658" y2="46.6631" gradientUnits="userSpaceOnUse">
<stop stop-color="#7277ED"/>
<stop offset="0.520833" stop-color="#8DC8E8"/>
</linearGradient>
</defs>
</svg>
