<?xml version="1.0" encoding="utf-8"?>
<!-- Generator: Adobe Illustrator 26.5.0, SVG Export Plug-In . SVG Version: 6.00 Build 0)  -->
<svg version="1.1" id="Layer_1" xmlns="http://www.w3.org/2000/svg" xmlns:xlink="http://www.w3.org/1999/xlink" x="0px" y="0px"
	 viewBox="0 0 221.6 159" style="enable-background:new 0 0 221.6 159;" xml:space="preserve">
<style type="text/css">
	.st0{clip-path:url(#SVGID_00000085243218196043734700000010536081632971411626_);}
	.st1{fill:url(#SVGID_00000054975504862885951090000016857221467226954665_);}
	.st2{fill:#FFB3BB;}
	.st3{fill:url(#SVGID_00000072251408044532662270000002125846409851128967_);}
	.st4{fill:url(#SVGID_00000130635786858815616760000004081288068136186287_);}
</style>
<g>
	<defs>
		<rect id="SVGID_1_" y="-5" width="234.1" height="176"/>
	</defs>
	<clipPath id="SVGID_00000068662014420856524790000009576100605460691604_">
		<use xlink:href="#SVGID_1_"  style="overflow:visible;"/>
	</clipPath>
	<g style="clip-path:url(#SVGID_00000068662014420856524790000009576100605460691604_);">
		
			<linearGradient id="SVGID_00000180361954828417190870000002520223076013146777_" gradientUnits="userSpaceOnUse" x1="5.6421" y1="92.1784" x2="71.5685" y2="26.6742" gradientTransform="matrix(1 0 0 -1 0 167.9983)">
			<stop  offset="0" style="stop-color:#9D70EE"/>
			<stop  offset="0.526" style="stop-color:#FFB3BB"/>
			<stop  offset="1" style="stop-color:#FFE399"/>
		</linearGradient>
		<path style="fill:url(#SVGID_00000180361954828417190870000002520223076013146777_);" d="M3.8,76.5l7.4-7.3l58,57.8
			c0.6,0.6,1,1.5,1,2.3c0,0.9-0.4,1.7-1,2.3l-7.4,7.3c-0.6,0.6-1.5,1-2.4,1c-0.9,0-1.7-0.4-2.4-1L3.8,85.9c-1.2-1.2-1.9-2.9-1.9-4.7
			C1.8,79.4,2.5,77.7,3.8,76.5z"/>
		<path class="st2" d="M11,93.2l-7.3-7.3c-1.2-1.2-1.9-2.9-1.9-4.7c0-1.8,0.7-3.4,2-4.7L58,22.7c0.6-0.6,1.5-1,2.4-1
			c0.9,0,1.7,0.4,2.4,1l7.4,7.3c0.6,0.6,1,1.5,1,2.3c0,0.9-0.4,1.7-1,2.3L11,93.2z"/>
		
			<linearGradient id="SVGID_00000011752125690404907210000012231899337778435464_" gradientUnits="userSpaceOnUse" x1="181.4621" y1="84.0941" x2="192.5241" y2="33.3368" gradientTransform="matrix(1 0 0 -1 0 167.9983)">
			<stop  offset="0" style="stop-color:#FFB3BB"/>
			<stop  offset="1" style="stop-color:#FFE399"/>
		</linearGradient>
		<path style="fill:url(#SVGID_00000011752125690404907210000012231899337778435464_);" d="M160.3,139l-7.4-7.3
			c-0.6-0.6-1-1.5-1-2.3c0-0.9,0.3-1.7,1-2.3l58-57.8l7.4,7.3c1.2,1.2,2,2.9,2,4.7c0,1.8-0.7,3.4-1.9,4.7L165,139
			c-0.6,0.6-1.5,1-2.4,1C161.7,140,160.9,139.6,160.3,139z"/>
		<path class="st2" d="M151.9,30l7.3-7.3c0.6-0.6,1.5-1,2.4-1c0.9,0,1.7,0.3,2.4,1l54.3,53.8c1.2,1.2,2,2.9,2,4.7
			c0,1.8-0.7,3.4-1.9,4.7l-7.3,7.3l-59-58.5c-0.6-0.6-1-1.5-1-2.3C150.9,31.5,151.3,30.7,151.9,30L151.9,30z"/>
		
			<linearGradient id="SVGID_00000018195779687972847070000006721375026567909520_" gradientUnits="userSpaceOnUse" x1="121.2218" y1="84.7362" x2="92.3685" y2="97.1542" gradientTransform="matrix(1 0 0 -1 0 167.9983)">
			<stop  offset="0.1198" style="stop-color:#7277ED"/>
			<stop  offset="0.5312" style="stop-color:#8DC8E8"/>
		</linearGradient>
		<path style="fill:url(#SVGID_00000018195779687972847070000006721375026567909520_);" d="M142.6,4.5l-11.8-3.7
			c-1.2-0.4-2.6,0.3-3,1.5L79.9,151.1c-0.4,1.2,0.3,2.6,1.5,3l11.8,3.7c1.2,0.4,2.6-0.3,3-1.5L144.1,7.5
			C144.5,6.3,143.8,4.9,142.6,4.5z"/>
	</g>
</g>
</svg>
