<?xml version="1.0" encoding="UTF-8"?>
<svg width="41px" height="45px" viewBox="0 0 41 45" version="1.1" xmlns="http://www.w3.org/2000/svg" xmlns:xlink="http://www.w3.org/1999/xlink">
    <g stroke="none" stroke-width="1" fill="none" fill-rule="evenodd">
        <g>
            <path d="M40.04,21.918 L1.045,21.918 L1.045,5.63 C1.045,5.63 0.456,1.385 20.019,0.795 C39.584,0.206 40.04,5.63 40.04,5.63 L40.04,21.918 Z" fill="#FFFFFF"></path>
            <path d="M40.0879,39.2481 C40.0879,39.2481 41.4989,43.5181 21.3459,43.9601 C1.1919,44.4021 0.7899,39.2481 0.7899,39.2481 L0.7899,21.4201 C0.7899,21.4201 1.2799,17.3531 19.9319,17.0891 C38.5819,16.8231 40.0879,21.4201 40.0879,21.4201 L40.0879,39.2481 Z" fill="#FFFFFF"></path>
            <path d="M0.79,21.4199 C0.79,21.4199 2.253,26.6349 20.903,26.3699 C39.555,26.1049 40.088,21.4199 40.088,21.4199 L40.088,39.2479 C40.088,39.2479 41.499,43.5179 21.346,43.9599 C1.192,44.4019 0.79,39.2479 0.79,39.2479" fill="#FFFFFF"></path>
            <path d="M40.9229,5.5098 L39.4229,5.5098 C39.4229,3.8748 32.0359,1.4998 20.4619,1.4998 C8.8869,1.4998 1.4999,3.8748 1.4999,5.5098 L-0.0001,5.5098 C-0.0001,1.8928 10.2939,-0.0002 20.4619,-0.0002 C30.6299,-0.0002 40.9229,1.8928 40.9229,5.5098" fill="#0078D7"></path>
            <path d="M20.4619,44.7842 C10.2939,44.7842 -0.0001,42.8912 -0.0001,39.2752 L1.4999,39.2752 C1.4999,40.9102 8.8869,43.2842 20.4619,43.2842 C32.0359,43.2842 39.4229,40.9102 39.4229,39.2752 L40.9229,39.2752 C40.9229,42.8912 30.6299,44.7842 20.4619,44.7842" fill="#0078D7"></path>
            <path d="M20.4619,27.2832 C10.2939,27.2832 -0.0001,25.3902 -0.0001,21.7732 L1.4999,21.7732 C1.4999,23.4082 8.8869,25.7832 20.4619,25.7832 C32.0359,25.7832 39.4229,23.4082 39.4229,21.7732 L40.9229,21.7732 C40.9229,25.3902 30.6299,27.2832 20.4619,27.2832" fill="#0078D7"></path>
            <polygon fill="#0078D7" points="39.423 39.3472 40.923 39.3472 40.923 5.7322 39.423 5.7322"></polygon>
            <path d="M20.4619,11.0186 C10.2939,11.0186 -0.0001,9.1256 -0.0001,5.5096 L1.4999,5.5096 C1.4999,7.1446 8.8869,9.5186 20.4619,9.5186 C32.0359,9.5186 39.4229,7.1446 39.4229,5.5096 L40.9229,5.5096 C40.9229,9.1256 30.6299,11.0186 20.4619,11.0186" fill="#0078D7"></path>
            <polygon fill="#0078D4" points="0.015 39.3882 1.515 39.3882 1.515 5.7312 0.015 5.7312"></polygon>
        </g>
    </g>
</svg>