
<svg width="260" height="220" viewBox="0 0 260 220" fill="none" xmlns="http://www.w3.org/2000/svg">
<path d="M185.01 0H184.259H11.3366H10.6145C7.95032 0.00738459 5.38497 1.00963 3.42139 2.81025C1.45781 4.61087 0.237606 7.07999 0 9.73356L0 127.995C0.220724 130.656 1.43249 133.138 3.39547 134.948C5.35845 136.759 7.92959 137.766 10.6 137.772H68.2216C68.6662 137.774 69.0938 137.943 69.42 138.245C69.7462 138.547 69.9473 138.96 69.9834 139.404V159.477C70.0572 160.144 70.3069 160.78 70.7071 161.318C71.1073 161.857 71.6435 162.279 72.2607 162.542C72.878 162.805 73.5541 162.9 74.2198 162.815C74.8854 162.731 75.5167 162.471 76.0488 162.062L112.355 138.089C112.695 137.872 113.091 137.756 113.496 137.757H184.995C187.667 137.752 190.24 136.745 192.206 134.935C194.171 133.125 195.386 130.643 195.61 127.98V9.73356C195.379 7.08 194.163 4.60911 192.201 2.80757C190.239 1.00602 187.673 0.00440244 185.01 0Z" fill="url(#paint0_linear_713_588)"/>
<path d="M139 52.7119C141.557 52.7091 144.058 53.465 146.186 54.8842C148.314 56.3033 149.972 58.3218 150.952 60.6841C151.933 63.0465 152.19 65.6465 151.691 68.1551C151.193 70.6636 149.962 72.968 148.153 74.7765C146.345 76.585 144.041 77.8163 141.532 78.3145C139.023 78.8128 136.423 78.5556 134.061 77.5755C131.699 76.5955 129.68 74.9366 128.261 72.8088C126.842 70.6811 126.086 68.1802 126.089 65.6226C126.089 62.1985 127.449 58.9146 129.87 56.4934C132.292 54.0722 135.575 52.7119 139 52.7119ZM84.8873 65.7959C84.9016 68.3491 85.6717 70.8409 87.1006 72.9569C88.5295 75.0729 90.553 76.7183 92.916 77.6856C95.279 78.6528 97.8755 78.8984 100.378 78.3916C102.88 77.8848 105.177 76.6481 106.977 74.8376C108.777 73.0272 110.001 70.7241 110.494 68.2188C110.987 65.7136 110.727 63.1185 109.747 60.7609C108.766 58.4034 107.11 56.389 104.986 54.9719C102.862 53.5549 100.366 52.7986 97.8124 52.7986C96.109 52.7985 94.4223 53.1352 92.8495 53.7893C91.2766 54.4434 89.8485 55.4019 88.6474 56.6097C87.4462 57.8176 86.4956 59.251 85.8504 60.8275C85.2051 62.404 84.8778 64.0925 84.8873 65.7959ZM43.6857 65.7959C43.7 68.3497 44.4705 70.8421 45.9001 72.9584C47.3296 75.0747 49.354 76.7201 51.7178 77.6869C54.0816 78.6537 56.6789 78.8985 59.1817 78.3905C61.6846 77.8825 63.9808 76.6444 65.7806 74.8325C67.5805 73.0206 68.8032 70.7161 69.2944 68.21C69.7857 65.7038 69.5235 63.1082 68.5409 60.7509C67.5583 58.3936 65.8994 56.3802 63.7736 54.9649C61.6478 53.5496 59.1503 52.7958 56.5964 52.7986C54.8942 52.8004 53.2091 53.1385 51.6379 53.7935C50.0667 54.4484 48.6403 55.4072 47.4407 56.6149C46.2411 57.8225 45.2918 59.2553 44.6474 60.8308C44.0031 62.4064 43.6762 64.0937 43.6857 65.7959Z" fill="#140035"/>
<path d="M250.4 82.4903H205.718V128.414V128.833C205.261 134.02 202.882 138.85 199.048 142.374C195.214 145.897 190.202 147.862 184.995 147.881H115.892L95.2988 161.456V190.267C95.4944 192.615 96.6046 194.792 98.3902 196.329C100.176 197.866 102.494 198.64 104.845 198.484H168.055C168.399 198.484 168.735 198.585 169.023 198.773L199.581 218.919C200.25 219.432 201.095 219.659 201.931 219.55C202.767 219.442 203.526 219.008 204.043 218.341C204.401 217.877 204.622 217.322 204.679 216.738V199.842C204.689 199.645 204.74 199.453 204.827 199.277C204.915 199.101 205.037 198.945 205.187 198.817C205.337 198.69 205.512 198.595 205.7 198.538C205.888 198.481 206.086 198.462 206.282 198.484H250.4C252.754 198.644 255.076 197.869 256.863 196.328C258.65 194.788 259.758 192.605 259.946 190.253V90.7075C259.754 88.3582 258.645 86.1789 256.859 84.6411C255.072 83.1033 252.752 82.3307 250.4 82.4903Z" fill="url(#paint1_linear_713_588)"/>
<defs>
<linearGradient id="paint0_linear_713_588" x1="138.5" y1="150.782" x2="19.5" y2="-0.217765" gradientUnits="userSpaceOnUse">
<stop stop-color="#9D70EE"/>
<stop offset="1" stop-color="#FFB3F7"/>
</linearGradient>
<linearGradient id="paint1_linear_713_588" x1="255" y1="194.282" x2="101" y2="82.7822" gradientUnits="userSpaceOnUse">
<stop stop-color="#1490DF"/>
<stop offset="0.917494" stop-color="#68C4FF"/>
</linearGradient>
</defs>
</svg>
