
<svg width="261" height="212" viewBox="0 0 261 212" fill="none" xmlns="http://www.w3.org/2000/svg">
<path d="M248.764 176.853C250.275 176.872 251.774 176.591 253.175 176.026C254.576 175.462 255.85 174.624 256.925 173.563C258 172.502 258.853 171.237 259.436 169.844C260.018 168.45 260.318 166.955 260.318 165.444C260.372 164.804 260.273 164.161 260.029 163.567C255.552 127.463 234.901 98.5801 195.62 98.5801C156.339 98.5801 135.11 123.997 131.066 164.144C130.783 167.204 131.715 170.252 133.661 172.63C135.606 175.008 138.409 176.525 141.464 176.853H248.764Z" fill="url(#paint0_linear_713_607)"/>
<path opacity="0.8" d="M195.764 107.678C188.79 107.739 181.955 105.728 176.124 101.901L195.62 152.735L214.827 102.335C209.083 105.829 202.488 107.678 195.764 107.678Z" fill="#140035"/>
<path d="M195.764 107.678C215.783 107.678 232.012 91.449 232.012 71.4298C232.012 51.4105 215.783 35.1816 195.764 35.1816C175.744 35.1816 159.516 51.4105 159.516 71.4298C159.516 91.449 175.744 107.678 195.764 107.678Z" fill="url(#paint1_linear_713_607)"/>
<path d="M175.835 211.946C180.393 211.946 184.764 210.136 187.987 206.913C191.209 203.69 193.02 199.319 193.02 194.761C193.092 194.089 193.092 193.411 193.02 192.739C186.233 138.728 155.761 95.5479 97.1286 95.5479C38.4962 95.5479 6.43611 132.807 0.0818548 193.028C-0.362274 197.583 1.01323 202.128 3.9082 205.672C6.80316 209.217 10.9825 211.472 15.5342 211.946H175.835Z" fill="url(#paint2_linear_713_607)"/>
<path opacity="0.8" d="M97.8507 108.4C87.5933 108.329 77.5708 105.322 68.9678 99.7354L97.8507 175.553L126.734 100.313C118.041 105.632 108.042 108.431 97.8507 108.4Z" fill="#140035"/>
<path d="M97.4173 108.401C127.327 108.401 151.573 84.1547 151.573 54.2454C151.573 24.3361 127.327 0.0898438 97.4173 0.0898438C67.508 0.0898438 43.2617 24.3361 43.2617 54.2454C43.2617 84.1547 67.508 108.401 97.4173 108.401Z" fill="url(#paint3_linear_713_607)"/>
<defs>
<linearGradient id="paint0_linear_713_607" x1="195.681" y1="176.889" x2="195.681" y2="98.5953" gradientUnits="userSpaceOnUse">
<stop stop-color="#1490DF"/>
<stop offset="0.307292" stop-color="#1490DF"/>
<stop offset="1" stop-color="#68C4FF"/>
</linearGradient>
<linearGradient id="paint1_linear_713_607" x1="195.767" y1="107.71" x2="195.767" y2="35.1958" gradientUnits="userSpaceOnUse">
<stop stop-color="#1490DF"/>
<stop offset="0.307292" stop-color="#1490DF"/>
<stop offset="1" stop-color="#68C4FF"/>
</linearGradient>
<linearGradient id="paint2_linear_713_607" x1="96.8398" y1="81.2508" x2="96.0818" y2="211.782" gradientUnits="userSpaceOnUse">
<stop offset="0.22" stop-color="#FFB3F7"/>
<stop offset="1" stop-color="#9D70EE"/>
</linearGradient>
<linearGradient id="paint3_linear_713_607" x1="92.796" y1="-4.53143" x2="104.494" y2="140.894" gradientUnits="userSpaceOnUse">
<stop offset="0.22" stop-color="#9D70EE"/>
<stop offset="1" stop-color="#FFB3F7"/>
</linearGradient>
</defs>
</svg>
