
<svg width="259" height="181" viewBox="0 0 259 181" fill="none" xmlns="http://www.w3.org/2000/svg">
<path d="M224.377 43.0984H0.0576172V3.96202C0.0576172 3.09641 0.401478 2.26626 1.01355 1.65418C1.62563 1.0421 2.45579 0.698242 3.32139 0.698242H221.056C221.923 0.698234 222.754 1.04163 223.369 1.6533C223.983 2.26496 224.33 3.09509 224.334 3.96202L224.377 43.0984Z" fill="#9D70EE"/>
<path d="M0 43.0986H224.276V176.74C224.276 177.625 223.925 178.473 223.299 179.099C222.674 179.725 221.825 180.076 220.94 180.076H3.33598C2.45123 180.076 1.6027 179.725 0.977087 179.099C0.351469 178.473 0 177.625 0 176.74V43.0986Z" fill="url(#paint0_linear_713_592)"/>
<path d="M15.4805 54.6514H208.563V163.973H15.4805V54.6514Z" fill="#140035"/>
<path d="M102.346 115.855H68.9719C66.8743 115.855 65.1738 117.556 65.1738 119.654V119.668C65.1738 121.766 66.8743 123.466 68.9719 123.466H102.346C104.444 123.466 106.144 121.766 106.144 119.668V119.654C106.144 117.556 104.444 115.855 102.346 115.855Z" fill="white"/>
<path d="M37.7205 122.744L61.9099 98.5544C62.1453 98.3269 62.3325 98.0542 62.4604 97.7528C62.5882 97.4513 62.6541 97.1272 62.6541 96.7998C62.6541 96.4724 62.5882 96.1483 62.4604 95.8468C62.3325 95.5454 62.1453 95.2728 61.9099 95.0452L37.3594 71.4622C37.121 71.2355 36.8395 71.059 36.5316 70.9432C36.2237 70.8274 35.8957 70.7747 35.567 70.7882C35.2383 70.8017 34.9157 70.8811 34.6182 71.0217C34.3208 71.1623 34.0547 71.3612 33.8357 71.6066L32.0161 73.4263C31.5937 73.9023 31.3727 74.5237 31.3997 75.1595C31.4266 75.7954 31.6994 76.3959 32.1605 76.8345L51.411 95.0885C51.6407 95.3179 51.8229 95.5902 51.9472 95.8901C52.0715 96.1899 52.1355 96.5113 52.1355 96.8359C52.1355 97.1605 52.0715 97.4819 51.9472 97.7817C51.8229 98.0816 51.6407 98.354 51.411 98.5833L32.6371 117.834C32.1863 118.295 31.934 118.915 31.934 119.56C31.934 120.205 32.1863 120.824 32.6371 121.285L34.0812 122.729C34.3103 122.984 34.5903 123.189 34.9032 123.329C35.216 123.469 35.5548 123.542 35.8976 123.544C36.2405 123.545 36.5798 123.475 36.8937 123.337C37.2077 123.199 37.4893 122.997 37.7205 122.744Z" fill="white"/>
<path d="M258.127 147.915C257.905 140.017 254.876 132.457 249.582 126.592C244.288 120.727 237.077 116.94 229.244 115.913C228.77 104.878 223.965 94.4739 215.871 86.9583C207.777 79.4426 197.046 75.4209 186.006 75.7656C177.09 75.5936 168.34 78.1937 160.965 83.2069C153.59 88.2202 147.954 95.3993 144.833 103.753C135.398 104.895 126.684 109.381 120.272 116.397C113.86 123.413 110.175 132.494 109.885 141.994C110.295 152.663 114.918 162.735 122.742 170.001C130.565 177.266 140.95 181.134 151.621 180.755L155.303 180.611H222.933C223.539 180.601 224.142 180.508 224.723 180.336C233.391 180.268 241.699 176.863 247.92 170.827C254.141 164.792 257.796 156.577 258.127 147.915Z" fill="url(#paint1_linear_713_592)"/>
<defs>
<linearGradient id="paint0_linear_713_592" x1="-0.313968" y1="42.7822" x2="211.686" y2="179.782" gradientUnits="userSpaceOnUse">
<stop stop-color="#FFB3F7"/>
<stop offset="1" stop-color="#9D70EE"/>
</linearGradient>
<linearGradient id="paint1_linear_713_592" x1="218.185" y1="180.782" x2="151.685" y2="75.7822" gradientUnits="userSpaceOnUse">
<stop stop-color="#1490DF"/>
<stop offset="0.307292" stop-color="#1490DF"/>
<stop offset="1" stop-color="#68C4FF"/>
</linearGradient>
</defs>
</svg>
