<?xml version="1.0" encoding="UTF-8"?>
<svg width="41px" height="47px" viewBox="0 0 41 47" version="1.1" xmlns="http://www.w3.org/2000/svg" xmlns:xlink="http://www.w3.org/1999/xlink">
    <g stroke="none" stroke-width="1" fill="none" fill-rule="evenodd">
        <g>
            <polygon fill="#FFFFFF" points="0.4608 11.7236 0.8768 34.3486 20.1268 45.3486 39.7108 33.8486 39.5018 11.9736 20.0858 0.6816"></polygon>
            <path d="M20.2305,18.4765 C17.6485,18.4765 15.5545,20.5705 15.5545,23.1535 C15.5545,25.7355 17.6485,27.8295 20.2305,27.8295 C22.8135,27.8295 24.9075,25.7355 24.9075,23.1535 C24.9075,20.5705 22.8135,18.4765 20.2305,18.4765" fill="#FFFFFF"></path>
            <path d="M20.2305,19.2265 C18.0655,19.2265 16.3045,20.9885 16.3045,23.1535 C16.3045,25.3185 18.0655,27.0795 20.2305,27.0795 C22.3955,27.0795 24.1575,25.3185 24.1575,23.1535 C24.1575,20.9885 22.3955,19.2265 20.2305,19.2265 M20.2305,28.5795 C17.2385,28.5795 14.8045,26.1455 14.8045,23.1535 C14.8045,20.1615 17.2385,17.7265 20.2305,17.7265 C23.2225,17.7265 25.6575,20.1615 25.6575,23.1535 C25.6575,26.1455 23.2225,28.5795 20.2305,28.5795" fill="#0078D4"></path>
            <polygon fill="#0078D4" points="19.354 14.6796 20.854 14.6796 20.854 0.9946 19.354 0.9946"></polygon>
            <polygon fill="#0078D4" points="19.354 45.1646 20.854 45.1646 20.854 31.7746 19.354 31.7746"></polygon>
            <polygon fill="#0078D4" points="12.2305 19.1777 0.7085 12.7177 1.4425 11.4087 12.9645 17.8687"></polygon>
            <polygon fill="#0078D4" points="38.6152 34.6728 27.7202 28.2828 28.4802 26.9898 39.3752 33.3798"></polygon>
            <polygon fill="#0078D4" points="1.4541 34.7783 0.6961 33.4833 11.9051 26.9193 12.6631 28.2143"></polygon>
            <path d="M1.5459,33.8349 L20.1479,44.5229 L38.7059,33.7579 L38.6609,12.3039 L20.0599,1.6149 L1.5009,12.3809 L1.5459,33.8349 Z M20.1499,46.1399 C20.0209,46.1399 19.8919,46.1059 19.7749,46.0399 L0.4229,34.9199 C0.1909,34.7859 0.0479,34.5389 0.0469,34.2719 L-0.0001,11.9509 C-0.0011,11.6829 0.1419,11.4349 0.3739,11.3009 L19.6819,0.1009 C19.9139,-0.0331 20.1989,-0.0331 20.4319,0.0989 L39.7839,11.2189 C40.0169,11.3529 40.1589,11.5999 40.1599,11.8669 L40.2069,34.1879 C40.2079,34.4559 40.0659,34.7039 39.8329,34.8379 L20.5249,46.0379 C20.4089,46.1059 20.2789,46.1399 20.1499,46.1399 Z" fill="#0078D4"></path>
            <polygon fill="#0078D4" points="28.1582 19.2109 27.4162 17.9059 38.9032 11.3759 39.6452 12.6809"></polygon>
        </g>
    </g>
</svg>