<svg xmlns="http://www.w3.org/2000/svg" width="18" height="18" viewBox="0 0 18 18">
  <defs>
    <linearGradient id="a7d81804-cf02-41d7-ae90-a6cc9d9b081e" x1="9" y1="774.915" x2="9" y2="793.568" gradientTransform="matrix(1, 0, 0, -1, 0, 791.516)" gradientUnits="userSpaceOnUse">
      <stop offset="0" stop-color="#0078d4" />
      <stop offset="1" stop-color="#5ea0ef" />
    </linearGradient>
  </defs>
  <g id="b896039c-064d-415f-adae-3d74fb4e6b4c">
    <g>
      <path d="M17.581,12.775c-.1.645-1.034,1.009-1.565,1.2-1.622.591-13.466.409-14.827-.376-.04-.022-.075-.045-.113-.068L1.015,13.5c-.055-.036-.1-.073-.153-.11a.953.953,0,0,1-.454-.72v2.327c0,1.043,2.021,1.465,2.768,1.657a19.977,19.977,0,0,0,3.818.529,27.68,27.68,0,0,0,7.774-.5c.848-.191,2.476-.549,2.794-1.495a.814.814,0,0,0,.019-.1v-2.4C17.582,12.714,17.582,12.745,17.581,12.775Z" fill="#5e9624" />
      <ellipse cx="9" cy="12.675" rx="2.251" ry="8.586" transform="translate(-3.685 21.661) rotate(-89.936)" fill="#76bc2d" />
      <path d="M11.384,14.243c-3.9.287-8.13-.179-9.449-1.05s.777-1.8,4.677-2.091,8.128.18,9.449,1.05S15.282,13.954,11.384,14.243Z" fill="#f2f2f2" />
      <path d="M17.645,9.157A3.843,3.843,0,0,0,14.273,5.43,4.9,4.9,0,0,0,9.231.743,5.042,5.042,0,0,0,4.409,3.989,4.612,4.612,0,0,0,.355,8.475,4.707,4.707,0,0,0,5.225,13h8.309a.746.746,0,0,0,.211,0A3.939,3.939,0,0,0,17.645,9.157Z" fill="url(#a7d81804-cf02-41d7-ae90-a6cc9d9b081e)" />
      <path d="M5.561,8.206H4.716a1.046,1.046,0,1,0,0,.471h.845a.192.192,0,0,1,.192.192V13h.471V8.869A.663.663,0,0,0,5.561,8.206Zm-1.873.845A.615.615,0,1,1,4.3,8.437a.614.614,0,0,1-.615.614Z" fill="#9cebff" />
      <path d="M8.942,8.417v-.96a.672.672,0,0,0-.672-.673H6.781a.192.192,0,0,1-.192-.192v-5.1l-.221.115-.25.135v4.8a.663.663,0,0,0,.663.663H8.27a.2.2,0,0,1,.2.2h0v.96a1.042,1.042,0,1,0,.47,0ZM8.7,10.05h0a.615.615,0,1,1,.615-.615.614.614,0,0,1-.615.615Z" fill="#f2f2f2" />
      <path d="M14.312,6.391a1.047,1.047,0,0,0-.24,2.065v.192a.2.2,0,0,1-.2.2H11.949V5.469a.663.663,0,0,0-.663-.663H10.3a1.042,1.042,0,1,0,0,.47h1.027a.192.192,0,0,1,.193.193V13h.47V9.32h1.921a.672.672,0,0,0,.673-.672V8.456A1.047,1.047,0,0,0,15.4,7.438h0A1.047,1.047,0,0,0,14.351,6.39Zm-5.033-.74h0a.615.615,0,1,1,.614-.615.615.615,0,0,1-.614.615Zm5.033,2.4h0a.615.615,0,1,1,.605-.624v.01A.615.615,0,0,1,14.312,8.052Z" fill="#9cebff" />
    </g>
  </g>
</svg>