
<svg width="266" height="188" viewBox="0 0 266 188" fill="none" xmlns="http://www.w3.org/2000/svg">
<path d="M5.6408 90.4438L14.3479 81.817L82.9972 150.219C83.7348 150.954 84.1484 151.95 84.1469 152.988C84.1454 154.026 83.729 155.021 82.9893 155.754L74.2822 164.381C73.5425 165.114 72.54 165.525 71.4954 165.523C70.4507 165.522 69.4494 165.108 68.7118 164.373L5.62506 101.513C4.14977 100.043 3.32263 98.0512 3.32558 95.9753C3.32854 93.8994 4.16135 91.9096 5.6408 90.4438Z" fill="url(#paint0_linear_713_600)"/>
<path d="M14.2554 110.159L5.56259 101.497C4.08731 100.027 3.26016 98.0352 3.26312 95.9593C3.26607 93.8833 4.09888 91.8936 5.57834 90.4278L69.8626 26.7359C70.6024 26.003 71.6048 25.5921 72.6495 25.5935C73.6941 25.595 74.6954 26.0088 75.4331 26.7437L84.1361 35.4155C84.8737 36.1505 85.2873 37.1465 85.2858 38.1844C85.2843 39.2224 84.8679 40.2173 84.1282 40.9502L14.2554 110.159Z" fill="#1490DF"/>
<path d="M190.8 164.378L182.082 155.741C181.343 155.008 180.926 154.013 180.925 152.975C180.923 151.937 181.337 150.941 182.074 150.206L250.724 81.804L259.441 90.4411C260.921 91.9069 261.753 93.8966 261.756 95.9726C261.759 98.0485 260.932 100.041 259.457 101.511L196.37 164.37C195.633 165.105 194.631 165.519 193.587 165.521C192.542 165.522 191.539 165.111 190.8 164.378Z" fill="url(#paint1_linear_713_600)"/>
<path d="M180.849 35.4768L189.541 26.8153C190.279 26.0803 191.28 25.6666 192.325 25.6651C193.37 25.6636 194.372 26.0745 195.112 26.8074L259.396 90.4993C260.876 91.9651 261.708 93.9549 261.711 96.0308C261.714 98.1067 260.887 100.099 259.412 101.569L250.719 110.23L180.898 41.0523C180.158 40.3194 179.742 39.3245 179.74 38.2865C179.739 37.2486 180.152 36.2526 180.89 35.5176L180.849 35.4768Z" fill="#1490DF"/>
<path d="M169.881 5.31211L155.969 0.886921C154.494 0.417583 152.915 1.22557 152.443 2.6916L95.7316 178.7C95.2593 180.166 96.0725 181.735 97.548 182.204L111.46 186.629C112.935 187.098 114.514 186.29 114.987 184.824L171.698 8.81642C172.17 7.35038 171.357 5.78145 169.881 5.31211Z" fill="url(#paint2_linear_713_600)"/>
<defs>
<linearGradient id="paint0_linear_713_600" x1="78.6683" y1="160.098" x2="7.68057" y2="88.4505" gradientUnits="userSpaceOnUse">
<stop stop-color="#1490DF"/>
<stop offset="0.307292" stop-color="#1490DF"/>
<stop offset="1" stop-color="#68C4FF"/>
</linearGradient>
<linearGradient id="paint1_linear_713_600" x1="188.2" y1="160.782" x2="257.734" y2="88.3351" gradientUnits="userSpaceOnUse">
<stop stop-color="#1490DF"/>
<stop offset="0.307292" stop-color="#1490DF"/>
<stop offset="1" stop-color="#68C4FF"/>
</linearGradient>
<linearGradient id="paint2_linear_713_600" x1="-29.8009" y1="187.782" x2="-52.6797" y2="136.281" gradientUnits="userSpaceOnUse">
<stop stop-color="#9D70EE"/>
<stop offset="1" stop-color="#FFB3F7"/>
</linearGradient>
</defs>
</svg>
