<svg width="168" height="168" xmlns="http://www.w3.org/2000/svg" xmlns:xlink="http://www.w3.org/1999/xlink" xml:space="preserve" overflow="hidden"><g transform="translate(-1172 181)"><g><g><g><g><path d="M1318.14-156.652 1192.89-156.652C1189.05-156.641 1185.94-153.532 1185.93-149.694L1185.93-66.1938C1185.94-62.3554 1189.05-59.2467 1192.89-59.2354L1241.59-59.2354 1241.59-48.7979 1224.2-48.7979 1224.2-38.3604 1286.82-38.3604 1286.82-48.7979 1269.43-48.7979 1269.43-59.2354 1318.14-59.2354C1321.97-59.2467 1325.08-62.3554 1325.09-66.1938L1325.09-149.694C1325.08-153.532 1321.97-156.641 1318.14-156.652ZM1314.66-69.6729 1196.36-69.6729 1196.36-146.215 1314.66-146.215Z" fill="#92D050" fill-rule="nonzero" fill-opacity="1"/><path d="M1214.06-88.2303C1220.08-88.4223 1237.06-88.0553 1250.87-79.0402 1251.52-78.6086 1252.28-78.3761 1253.06-78.3708L1257.98-78.3708C1258.73-78.3752 1259.46-78.5893 1260.1-78.9891 1274.57-88.0076 1291.03-88.4189 1296.93-88.2332 1298.02-88.1977 1298.93-89.0555 1298.97-90.1492 1298.97-90.2331 1298.97-90.3169 1298.96-90.4004L1295.98-122.589C1295.89-123.613 1295.03-124.396 1294-124.391 1293.5-124.387 1292.9-124.372 1292.22-124.345L1291.7-129.867 1290.23-129.973C1288.7-130.039 1287.17-129.996 1285.64-129.845L1285.17-135.274 1283.86-135.51C1273.43-136.8 1262.98-133.247 1255.49-125.865 1248.01-133.247 1237.56-136.8 1227.13-135.51L1225.82-135.274 1225.35-129.846C1223.82-129.996 1222.29-130.039 1220.76-129.974L1219.29-129.868 1218.77-124.345C1218.09-124.372 1217.49-124.387 1216.99-124.391 1215.96-124.396 1215.1-123.613 1215.01-122.589L1212.03-90.3975C1211.92-89.3097 1212.72-88.343 1213.81-88.2385 1213.89-88.2303 1213.97-88.2277 1214.06-88.2303ZM1257.23-122.668C1263.65-129.357 1272.69-132.862 1281.94-132.242L1284.64-101.009C1274.54-99.1578 1265.09-94.7061 1257.23-88.0925ZM1257.23-83.314C1269.18-95.5398 1286.54-97.7943 1286.72-97.8159L1288.39-98.0198 1285.94-126.356C1286.98-126.452 1287.87-126.5 1288.52-126.515L1291.47-94.9882C1279.04-94.6394 1267.04-90.3256 1257.23-82.6765ZM1229.05-132.231C1238.28-132.804 1247.31-129.31 1253.76-122.666L1253.76-88.0909C1245.9-94.7054 1236.45-99.1576 1226.35-101.009ZM1222.47-126.519C1223.12-126.506 1224.01-126.46 1225.05-126.365L1222.6-98.0173 1224.27-97.8159C1224.45-97.7945 1241.78-95.5701 1253.76-83.3123L1253.76-82.6753C1243.95-90.3254 1231.95-94.6398 1219.52-94.9884Z" fill="#92D050" fill-rule="nonzero" fill-opacity="1"/><path d="M1262.47-107.176 1262.47-102.911C1267.17-106.318 1272.37-108.959 1277.9-110.737L1277.63-114.306C1272.26-112.649 1267.16-110.249 1262.47-107.176Z" fill="#92D050" fill-rule="nonzero" fill-opacity="1"/><path d="M1276.92-123.508C1271.81-121.867 1266.95-119.545 1262.47-116.606L1262.47-112.341C1266.96-115.605 1271.93-118.163 1277.19-119.929Z" fill="#92D050" fill-rule="nonzero" fill-opacity="1"/></g></g></g></g></g></svg>