<svg width="144" height="142" xmlns="http://www.w3.org/2000/svg" xmlns:xlink="http://www.w3.org/1999/xlink" xml:space="preserve" overflow="hidden"><g transform="translate(-72 -344)"><g><g><g><g><path d="M127.208 32.5417 127.208 105.021 14.7917 105.021 14.7917 32.5417 5.91667 32.5417 5.91667 115.375 57.6875 115.375C57.6875 117.89 59.6104 119.812 62.125 119.812L79.875 119.812C82.3896 119.812 84.3125 117.89 84.3125 115.375L136.083 115.375 136.083 32.5417 127.208 32.5417Z" fill="#92D050" fill-rule="nonzero" fill-opacity="1" transform="matrix(1.00704 0 0 1 73 344)"/><path d="M121.292 23.6667 20.7083 23.6667 20.7083 99.1042 121.292 99.1042 121.292 23.6667ZM29.5833 32.5417 68.0417 32.5417 68.0417 90.2292 29.5833 90.2292 29.5833 32.5417ZM112.417 90.2292 73.9583 90.2292 73.9583 32.5417 112.417 32.5417 112.417 90.2292Z" fill="#92D050" fill-rule="nonzero" fill-opacity="1" transform="matrix(1.00704 0 0 1 73 344)"/><path d="M82.8333 47.3333 103.542 47.3333 103.542 51.7708 82.8333 51.7708Z" fill="#92D050" fill-rule="nonzero" fill-opacity="1" transform="matrix(1.00704 0 0 1 73 344)"/><path d="M82.8333 56.2083 103.542 56.2083 103.542 60.6458 82.8333 60.6458Z" fill="#92D050" fill-rule="nonzero" fill-opacity="1" transform="matrix(1.00704 0 0 1 73 344)"/><path d="M82.8333 65.0833 97.1812 65.0833 97.1812 69.5208 82.8333 69.5208Z" fill="#92D050" fill-rule="nonzero" fill-opacity="1" transform="matrix(1.00704 0 0 1 73 344)"/></g></g></g></g></g></svg>