<svg xmlns="http://www.w3.org/2000/svg" xmlns:xlink="http://www.w3.org/1999/xlink" viewBox="0 0 16 16">
  <defs>
    <linearGradient id="linear-gradient" x1="6.49" y1="1" x2="6.49" y2="11.727" gradientUnits="userSpaceOnUse">
      <stop offset="0" stop-color="#fff" />
      <stop offset="1" stop-color="#fff" stop-opacity="0" />
    </linearGradient>
    <linearGradient id="linear-gradient-2" x1="6.995" y1="12.073" x2="15.899" y2="9.687" gradientUnits="userSpaceOnUse">
      <stop offset="0" stop-color="#854cc7" />
      <stop offset="0.136" stop-color="#69207b" />
      <stop offset="0.209" stop-color="#69207b" />
      <stop offset="0.671" stop-color="#1f9cf0" />
      <stop offset="0.943" stop-color="#00b294" stop-opacity="0.85" />
    </linearGradient>
  </defs>
  <g id="canvas">
    <path d="M16,0V16H0V0Z" fill="none" opacity="0" />
  </g>
  <g id="level-1">
    <path d="M11.98,6.1a4.925,4.925,0,0,0-1.97,0,2.119,2.119,0,0,0-.554-1.367A1.972,1.972,0,0,0,9.4,3.276s-.46-.152-1.512.563a5.2,5.2,0,0,0-2.75,0c-1.052-.708-1.513-.563-1.513-.563a1.978,1.978,0,0,0-.055,1.457,2.143,2.143,0,0,0-.563,1.478,2.434,2.434,0,0,0,2.5,2.716,1.16,1.16,0,0,0-.351.735,1.175,1.175,0,0,1-1.6-.453,1.1,1.1,0,0,0-.845-.564c-.461.007-.186.261.007.364a1.99,1.99,0,0,1,.563.777c.111.31.468.9,1.85.646,0,.461.007.894.007,1.025s-.1.309-.378.261A5.5,5.5,0,1,1,11.98,6.1Z" />
    <path d="M11.98,6.1a4.925,4.925,0,0,0-1.97,0,2.119,2.119,0,0,0-.554-1.367A1.972,1.972,0,0,0,9.4,3.276s-.46-.152-1.512.563a5.2,5.2,0,0,0-2.75,0c-1.052-.708-1.513-.563-1.513-.563a1.978,1.978,0,0,0-.055,1.457,2.143,2.143,0,0,0-.563,1.478,2.434,2.434,0,0,0,2.5,2.716,1.16,1.16,0,0,0-.351.735,1.175,1.175,0,0,1-1.6-.453,1.1,1.1,0,0,0-.845-.564c-.461.007-.186.261.007.364a1.99,1.99,0,0,1,.563.777c.111.31.468.9,1.85.646,0,.461.007.894.007,1.025s-.1.309-.378.261A5.5,5.5,0,1,1,11.98,6.1Z" fill-rule="evenodd" opacity="0.25" fill="url(#linear-gradient)" />
    <path d="M9.436,9.851l1.61,1.611L9.425,13.084l-.538-.54,1.05-1.052.032-.031-.032-.031L8.9,10.39Zm2.6.675.032-.031L13.1,9.455l-.538-.539-1.61,1.61,1.622,1.622.538-.54-1.05-1.05ZM15,11a4,4,0,1,1-4-4A4.005,4.005,0,0,1,15,11Zm-1,0a3,3,0,1,0-.879,2.121A3,3,0,0,0,14,11Z" fill="url(#linear-gradient-2)" />
  </g>
</svg>