<svg width="366" height="127" viewBox="0 0 366 127" fill="none" xmlns="http://www.w3.org/2000/svg">
<path d="M39.0273 125.573L29.5878 102.918C27.0495 96.7819 23.4831 93.7138 18.8884 93.7138H12.9226V125.573H0V47H25.132C33.2716 47 39.5862 48.8708 44.0759 52.6124C48.5657 56.354 50.8105 61.561 50.8105 68.2335C50.9499 73.2582 49.3478 78.1744 46.2807 82.1336C43.0618 86.0699 38.6407 88.8169 33.71 89.9441V90.1593C35.6398 90.9563 37.3315 92.2456 38.6197 93.9009C40.2271 95.6946 41.5377 97.7381 42.5011 99.9529L54.3955 125.573H39.0273ZM37.2394 69.4496C37.3181 67.8364 37.0243 66.2268 36.3812 64.7479C35.7382 63.269 34.7634 61.9613 33.534 60.9281C31.1008 58.8952 27.6548 57.8818 23.1959 57.888H12.9226V82.7135H23.0199C26.767 82.8382 30.4173 81.4979 33.2098 78.9719C34.5208 77.7712 35.5595 76.2988 36.255 74.6553C36.9505 73.0119 37.2863 71.2361 37.2394 69.4496Z" fill="white"/>
<path d="M70.0193 101.253C70.2725 106.372 71.8164 110.267 74.6511 112.936C77.4857 115.605 81.5215 116.936 86.7585 116.93C89.8407 116.944 92.9033 116.435 95.8183 115.424C98.5264 114.518 101.089 113.216 103.424 111.561V122.252C100.803 123.849 97.9391 124.996 94.9475 125.648C91.2601 126.552 87.4776 127.001 83.683 126.985C75.2408 126.985 68.7069 124.435 64.0813 119.334C59.4558 114.233 57.1399 107.155 57.1337 98.1004C57.0108 92.6522 58.193 87.2547 60.5797 82.367C62.7378 78.033 66.0563 74.3969 70.1582 71.8718C74.1999 69.3782 78.8542 68.0817 83.5904 68.1302C91.2606 68.1302 97.2232 70.503 101.478 75.2486C105.733 79.9942 107.858 86.5731 107.852 94.9855V101.253H70.0193ZM95.3643 91.721C95.3643 87.2622 94.333 83.8636 92.2703 81.5251C90.2076 79.1866 87.3143 78.0174 83.5904 78.0174C81.9359 78.0043 80.2964 78.3355 78.7744 78.9905C77.2523 79.6456 75.8802 80.6103 74.7437 81.8245C72.1626 84.5292 70.507 87.9973 70.0193 91.721H95.3643Z" fill="white"/>
<path d="M150.272 125.573V117.847H150.049C148.358 120.704 145.943 123.053 143.052 124.653C140.162 126.253 136.901 127.045 133.607 126.948C128.141 126.948 123.834 125.449 120.684 122.449C117.534 119.45 115.963 115.396 115.969 110.289C115.969 105.032 117.513 100.813 120.601 97.6329C123.688 94.4526 128.209 92.4789 134.162 91.7118L150.392 89.4669C150.392 81.8216 146.884 78.002 139.869 78.0083C136.493 78.0053 133.142 78.581 129.957 79.7107C126.892 80.7719 124.007 82.3054 121.406 84.2567V73.1068C124.212 71.504 127.241 70.3402 130.392 69.6552C133.916 68.6947 137.544 68.1794 141.193 68.1211C148.326 68.1211 153.693 69.9919 157.293 73.7335C160.894 77.4751 162.679 82.9066 162.648 90.0281V125.573H150.272ZM128.289 108.97C128.249 110.071 128.463 111.167 128.915 112.171C129.367 113.174 130.044 114.057 130.892 114.751C132.776 116.242 135.124 117.007 137.516 116.911C139.243 116.969 140.963 116.654 142.56 115.988C144.157 115.322 145.596 114.32 146.779 113.048C147.988 111.747 148.93 110.218 149.553 108.549C150.176 106.88 150.468 105.103 150.411 103.32V98.2783L138.414 99.9059C134.616 100.458 131.985 101.403 130.522 102.759C129.058 104.115 128.289 106.192 128.289 109.007V108.97Z" fill="white"/>
<path d="M215.225 123.254C210.951 125.748 205.686 126.995 199.43 126.995C194.444 127.082 189.519 125.874 185.127 123.487C180.996 121.176 177.614 117.706 175.391 113.497C173.024 109.053 171.819 104.073 171.89 99.0268C171.777 93.4227 173.017 87.8751 175.503 82.8631C177.835 78.258 181.486 74.4676 185.98 71.9845C190.868 69.328 196.354 67.997 201.904 68.1213C204.367 68.1313 206.822 68.3978 209.231 68.9163C211.332 69.2879 213.365 69.9786 215.262 70.9649V82.966C211.581 80.1161 207.088 78.5414 202.45 78.4761C200.086 78.3869 197.731 78.8127 195.544 79.7247C193.357 80.6366 191.391 82.0133 189.778 83.7611C186.536 87.2844 184.914 91.9895 184.914 97.8763C184.914 103.763 186.458 108.35 189.546 111.636C192.634 114.954 196.852 116.615 202.2 116.622C204.416 116.57 206.608 116.143 208.685 115.359C211.031 114.544 213.245 113.38 215.252 111.907L215.225 123.254Z" fill="white"/>
<path d="M258.548 125.059C257.266 125.674 255.907 126.108 254.509 126.35C252.662 126.762 250.777 126.975 248.886 126.986C237.992 126.986 232.545 121.062 232.545 109.213V79.6828H223.281V69.4496H232.545V56.5504L245.143 52.6592V69.4963H258.548V79.6922H245.143V106.866C245.143 110.414 245.761 112.927 246.996 114.405C248.231 115.883 250.22 116.622 252.962 116.622C253.905 116.595 254.84 116.438 255.741 116.154C256.727 115.895 257.665 115.478 258.52 114.919L258.548 125.059Z" fill="white"/>
<path d="M366.001 81.8161C365.012 81.2016 363.929 80.7589 362.795 80.5065C361.472 80.1253 360.105 79.9209 358.729 79.8985C356.984 79.8663 355.259 80.2778 353.713 81.0951C352.167 81.9124 350.85 83.1092 349.882 84.5755C347.64 87.6935 346.519 91.7874 346.519 96.8572V125.574H333.977V69.4501H346.519V80.3943H346.77C347.756 76.997 349.685 73.9557 352.328 71.6296C354.737 69.5759 357.799 68.4669 360.952 68.5053C362.668 68.4285 364.383 68.689 366.001 69.2724V81.8161Z" fill="white"/>
<path d="M305.527 79.8137L315.717 97.5862L305.527 115.359H285.203L275.013 97.5862L285.203 79.8137H305.527ZM306.574 68.5889H284.156C282.525 68.5871 280.922 69.0182 279.507 69.839C278.093 70.6599 276.917 71.8416 276.097 73.2659L264.897 92.8625C264.084 94.2845 263.656 95.8975 263.656 97.5395C263.656 99.1814 264.084 100.794 264.897 102.216L276.097 121.86C276.918 123.283 278.094 124.463 279.509 125.284C280.923 126.105 282.525 126.537 284.156 126.537H306.574C308.205 126.537 309.808 126.105 311.222 125.284C312.636 124.463 313.812 123.283 314.633 121.86L325.833 102.216C326.646 100.794 327.074 99.1814 327.074 97.5395C327.074 95.8975 326.646 94.2845 325.833 92.8625L314.633 73.2659C313.814 71.8416 312.638 70.6599 311.223 69.839C309.809 69.0182 308.205 68.5871 306.574 68.5889V68.5889Z" fill="url(#paint0_linear)"/>
<path d="M35.3101 12.3041L34.6856 13.9967H34.6606C34.5111 13.4313 34.319 12.878 34.086 12.3416L30.8883 4.29751H27.7656V17.1006H29.8329V9.21265C29.8329 8.71302 29.8329 8.15092 29.8329 7.45144C29.8329 7.10794 29.7829 6.82691 29.7704 6.64579H29.8204C29.8926 7.01715 29.9928 7.38251 30.1201 7.73874L33.9611 17.1069H35.4163L39.226 7.68251C39.3269 7.35198 39.4103 7.01635 39.4758 6.67701H39.5258C39.4758 7.62007 39.4446 8.4632 39.4258 8.97532V17.0944H41.6305V4.29751H38.5889L35.3101 12.3041ZM43.7164 7.88237H45.8399V17.0631H43.7164V7.88237ZM44.8094 4.0102C44.4695 4.00576 44.1417 4.136 43.8975 4.37245C43.7805 4.48857 43.6875 4.62674 43.6241 4.77895C43.5607 4.93116 43.5281 5.09439 43.5281 5.25929C43.5281 5.42418 43.5607 5.58745 43.6241 5.73966C43.6875 5.89188 43.7805 6.03005 43.8975 6.14617C44.0182 6.26272 44.1612 6.35375 44.3179 6.41384C44.4745 6.47393 44.6417 6.50184 44.8094 6.49591C45.1462 6.49669 45.4713 6.37201 45.7212 6.14617C45.8425 6.03399 45.9391 5.89771 46.0047 5.74607C46.0703 5.59443 46.1035 5.43076 46.1022 5.26554C46.1015 5.09878 46.0675 4.93386 46.002 4.78048C45.9366 4.62709 45.8411 4.48835 45.7212 4.37245C45.6015 4.25365 45.4591 4.16032 45.3023 4.09807C45.1456 4.03581 44.9779 4.00591 44.8094 4.0102V4.0102ZM53.503 7.80118C53.1045 7.71742 52.6986 7.67352 52.2914 7.67005C51.3795 7.64548 50.4771 7.86085 49.6746 8.29459C48.9435 8.70853 48.3473 9.3243 47.9571 10.0683C47.5352 10.8865 47.3207 11.7958 47.3325 12.7163C47.3238 13.5436 47.5236 14.3598 47.9133 15.0896C48.2813 15.7833 48.8463 16.3527 49.5372 16.7259C50.2627 17.1209 51.0782 17.321 51.9042 17.3067C52.81 17.3298 53.7059 17.1144 54.5023 16.6822V16.6822V14.6961L54.4211 14.7648C54.1046 15.0004 53.7525 15.1839 53.3781 15.3082C53.0477 15.4302 52.6997 15.4977 52.3476 15.508C51.9737 15.5327 51.5989 15.4744 51.2502 15.3373C50.9014 15.2001 50.5873 14.9876 50.3303 14.7149C49.807 14.1157 49.5381 13.3359 49.5809 12.5415C49.5323 11.7252 49.8059 10.9224 50.3428 10.3056C50.6033 10.0337 50.9181 9.81979 51.2667 9.67774C51.6154 9.53569 51.9901 9.46873 52.3663 9.4812C53.1068 9.49214 53.8253 9.73454 54.4211 10.1744L54.5023 10.2432V8.13846C54.1736 7.99205 53.8302 7.88107 53.478 7.80743L53.503 7.80118ZM60.5853 7.74499C60.0532 7.73888 59.5358 7.92017 59.1239 8.25712C58.7485 8.59762 58.465 9.0272 58.2995 9.5062V9.5062V7.89487H56.1261V17.0756H58.2807V12.3853C58.2435 11.6995 58.4298 11.0201 58.8116 10.4492C58.9623 10.2176 59.1689 10.0276 59.4122 9.89662C59.6556 9.76566 59.928 9.698 60.2043 9.69981C60.4142 9.71504 60.6229 9.74422 60.8289 9.78722C61.0106 9.82788 61.1838 9.89974 61.341 9.99958L61.4284 10.0683V7.91359H61.3785C61.1234 7.80074 60.8448 7.75146 60.5666 7.76996L60.5853 7.74499ZM66.4248 7.71998C65.7722 7.6837 65.1192 7.78258 64.5066 8.01041C63.894 8.23825 63.3351 8.59012 62.8649 9.04401C62.4266 9.5321 62.0903 10.1029 61.8758 10.7228C61.6613 11.3427 61.5729 11.9993 61.6158 12.6539C61.5854 13.2798 61.6802 13.9054 61.8947 14.4942C62.1092 15.0829 62.439 15.6229 62.8649 16.0826C63.8225 16.91 65.0498 17.3586 66.3152 17.3436C67.5807 17.3287 68.797 16.8513 69.7348 16.0014C70.6055 15.0241 71.0545 13.7423 70.9839 12.4353C71.0548 11.167 70.619 9.92236 69.7723 8.97532C69.3338 8.54312 68.8089 8.20844 68.232 7.99318C67.6551 7.77793 67.0393 7.68696 66.4248 7.72624V7.71998ZM68.1485 14.7773C67.9296 15.0383 67.6518 15.2435 67.338 15.376C67.0241 15.5085 66.6833 15.5644 66.3436 15.5393C65.991 15.5627 65.6379 15.5031 65.3125 15.3654C64.9871 15.2276 64.6986 15.0155 64.47 14.7461C63.9916 14.1146 63.7566 13.332 63.8079 12.5415C63.7603 11.7378 63.9944 10.9427 64.47 10.2931C64.6959 10.0284 64.9794 9.81876 65.2987 9.68022C65.6179 9.54168 65.9647 9.47789 66.3124 9.4937C66.6486 9.47544 66.9844 9.53465 67.2941 9.66676C67.6038 9.79887 67.879 10.0003 68.0985 10.2556C68.5751 10.9 68.8095 11.6916 68.7606 12.4915C68.8024 13.3006 68.5835 14.1019 68.136 14.7773H68.1485ZM75.7742 11.7296C75.3074 11.5677 74.8658 11.3406 74.4626 11.0551C74.377 10.9607 74.3108 10.8502 74.268 10.7302C74.2251 10.6102 74.2063 10.4829 74.2128 10.3556C74.2098 10.2246 74.2403 10.0949 74.3016 9.97907C74.3628 9.8632 74.4526 9.76491 74.5626 9.69356C74.8439 9.51559 75.1731 9.42837 75.5056 9.44373C75.882 9.45042 76.2558 9.50713 76.6173 9.61237C76.9628 9.70201 77.2888 9.85442 77.5791 10.062L77.6603 10.1245V8.04476H77.6103C77.2942 7.92321 76.9683 7.82917 76.636 7.76371C76.2855 7.7009 75.9304 7.66749 75.5743 7.6638C74.6619 7.61979 73.7634 7.90081 73.0387 8.45694C72.7266 8.69201 72.4753 8.99838 72.3058 9.35041C72.1363 9.70244 72.0535 10.0899 72.0644 10.4805C72.0443 10.8569 72.1129 11.2328 72.2648 11.5777C72.4167 11.9227 72.6475 12.2272 72.9387 12.4665C73.3451 12.7721 73.7903 13.022 74.2628 13.2097C74.6418 13.3638 75.0128 13.5368 75.3745 13.7281C75.5575 13.8368 75.7255 13.9691 75.8741 14.1215C75.9651 14.2765 76.0106 14.454 76.0052 14.6337C76.0052 15.2582 75.5431 15.5455 74.5938 15.5455C74.1892 15.541 73.7882 15.4693 73.4072 15.3332C72.9756 15.1837 72.5676 14.9734 72.1955 14.7086L72.1143 14.6399V16.7883H72.1643C72.5371 16.947 72.9239 17.0704 73.3197 17.1568C73.7313 17.2409 74.149 17.2911 74.5688 17.3067C75.5247 17.3673 76.4707 17.0837 77.2356 16.5073C77.5603 16.2672 77.8219 15.9521 77.9981 15.5888C78.1743 15.2255 78.2598 14.8249 78.2474 14.4213C78.2686 13.8495 78.0798 13.2896 77.7165 12.8475C77.1391 12.3616 76.4848 11.9753 75.7804 11.7046L75.7742 11.7296ZM83.8995 7.70127C83.2469 7.66498 82.5939 7.76386 81.9813 7.9917C81.3687 8.21953 80.8098 8.5714 80.3396 9.02529C79.4615 10.0156 79.0123 11.3139 79.0905 12.6351C79.0601 13.261 79.1549 13.8867 79.3694 14.4754C79.5839 15.0642 79.9137 15.6042 80.3396 16.0639C81.2972 16.8913 82.5244 17.3398 83.7899 17.3249C85.0554 17.3099 86.2717 16.8325 87.2095 15.9827C88.0802 15.0054 88.5292 13.7235 88.4586 12.4166C88.5295 11.1482 88.0937 9.90365 87.247 8.9566C86.8084 8.5244 86.2835 8.18972 85.7067 7.97447C85.1298 7.75921 84.5139 7.66824 83.8995 7.70752V7.70127ZM85.6107 14.7586C85.3911 15.0188 85.1132 15.2235 84.7995 15.3559C84.4859 15.4883 84.1454 15.5447 83.8058 15.5205C83.4528 15.5475 83.0986 15.4896 82.7726 15.3516C82.4466 15.2136 82.1585 14.9995 81.9321 14.7274C81.449 14.098 81.2115 13.3144 81.2639 12.5227C81.2181 11.7183 81.4544 10.9232 81.9321 10.2744C82.1566 10.0094 82.4388 9.79953 82.7572 9.66093C83.0755 9.52233 83.4215 9.45869 83.7683 9.47495C84.1042 9.45902 84.4394 9.5193 84.7487 9.65125C85.058 9.7832 85.3335 9.98342 85.5545 10.2369C86.031 10.8812 86.2654 11.6729 86.2165 12.4728C86.2705 13.2832 86.0505 14.0882 85.592 14.7586H85.6107ZM99.9564 9.6748V7.90113H97.783V5.17188H97.7206L95.6658 5.79642H95.6159V7.86366H92.4307V6.70823C92.4026 6.27304 92.5335 5.84246 92.7992 5.49662C92.928 5.36175 93.0847 5.25669 93.2584 5.18873C93.4321 5.12077 93.6185 5.09154 93.8047 5.10315C94.1365 5.10681 94.464 5.17912 94.7665 5.31551L94.8477 5.36549V3.49186H94.7977C94.4076 3.37099 94.0006 3.31404 93.5923 3.32322C92.9945 3.32095 92.4044 3.4578 91.8686 3.72294C91.3702 3.99022 90.9617 4.39866 90.6945 4.89708C90.404 5.41785 90.2553 6.0058 90.2635 6.60207V7.85115H88.7584V9.61237H90.2635V17.0319H92.4307V9.65609H95.6783V14.3776C95.6783 16.3137 96.5901 17.2942 98.4138 17.2942C98.7179 17.2856 99.0208 17.2522 99.3194 17.1943C99.5545 17.15 99.7832 17.0766 100 16.9757V16.9757V15.202L99.919 15.2707C99.7807 15.3595 99.6288 15.4249 99.4693 15.4643C99.3297 15.5078 99.1845 15.5309 99.0384 15.533C98.8649 15.551 98.6896 15.5288 98.526 15.4681C98.3625 15.4075 98.2151 15.31 98.0953 15.1833C97.8611 14.839 97.755 14.4235 97.7955 14.0091V9.66855L99.9564 9.6748Z" fill="white"/>
<path d="M0 0H10.1551V10.1551H0V0Z" fill="#EF5125"/>
<path d="M11.2422 0H21.366V10.1551H11.2422V0Z" fill="#7FBA42"/>
<path d="M0 11.2109H10.1551V21.366H0V11.2109Z" fill="#329FD9"/>
<path d="M11.2422 11.2109H21.366V21.366H11.2422V11.2109Z" fill="#FCB713"/>
<defs>
<linearGradient id="paint0_linear" x1="274.879" y1="126.426" x2="315.105" y2="76.418" gradientUnits="userSpaceOnUse">
<stop stop-color="#00A4EF"/>
<stop offset="1" stop-color="#50E6FF"/>
</linearGradient>
</defs>
</svg>
