<svg width="283" height="198" viewBox="0 0 283 198" fill="none" xmlns="http://www.w3.org/2000/svg">
<path d="M245.999 46.4859H0.0640106V3.57828C0.0640106 2.62926 0.441006 1.71911 1.11206 1.04805C1.78312 0.376995 2.69327 1.6944e-10 3.64229 1.6944e-10H242.358C243.308 -9.22265e-06 244.22 0.37648 244.893 1.04709C245.567 1.71769 245.948 2.62781 245.952 3.57828L245.999 46.4859Z" fill="#9D70EE"/>
<path d="M0 46.4862H245.888V193.006C245.888 193.976 245.502 194.906 244.817 195.592C244.131 196.278 243.2 196.663 242.23 196.663H3.65744C2.68743 196.663 1.75714 196.278 1.07124 195.592C0.385337 194.906 0 193.976 0 193.006V46.4862Z" fill="url(#paint0_linear_30_67)"/>
<path d="M16.9722 59.1521H228.661V179.009H16.9722V59.1521Z" fill="#140035"/>
<path d="M112.209 126.255H75.6185C73.3188 126.255 71.4544 128.119 71.4544 130.419V130.435C71.4544 132.735 73.3188 134.599 75.6185 134.599H112.209C114.509 134.599 116.373 132.735 116.373 130.435V130.419C116.373 128.119 114.509 126.255 112.209 126.255Z" fill="white"/>
<path d="M41.3546 133.806L67.875 107.286C68.1331 107.036 68.3383 106.737 68.4785 106.407C68.6186 106.076 68.6909 105.721 68.6909 105.362C68.6909 105.003 68.6186 104.648 68.4785 104.317C68.3383 103.987 68.1331 103.688 67.875 103.438L40.9587 77.5828C40.6974 77.3342 40.3888 77.1407 40.0512 77.0138C39.7136 76.8868 39.3539 76.829 38.9936 76.8438C38.6332 76.8586 38.2795 76.9456 37.9534 77.0998C37.6273 77.2539 37.3356 77.472 37.0955 77.7411L35.1005 79.7361C34.6374 80.258 34.3951 80.9393 34.4247 81.6364C34.4542 82.3335 34.7533 82.9918 35.2588 83.4727L56.3643 103.486C56.6161 103.737 56.8159 104.036 56.9522 104.365C57.0885 104.693 57.1587 105.046 57.1587 105.402C57.1587 105.757 57.0885 106.11 56.9522 106.438C56.8159 106.767 56.6161 107.066 56.3643 107.317L35.7813 128.423C35.2871 128.929 35.0105 129.608 35.0105 130.315C35.0105 131.022 35.2871 131.701 35.7813 132.207L37.3646 133.79C37.6158 134.07 37.9228 134.294 38.2658 134.447C38.6088 134.601 38.9802 134.681 39.3561 134.683C39.7319 134.684 40.104 134.607 40.4482 134.456C40.7924 134.305 41.1011 134.084 41.3546 133.806Z" fill="white"/>
<path d="M282.998 161.403C282.755 152.744 279.434 144.455 273.63 138.025C267.826 131.594 259.92 127.443 251.332 126.317C250.813 114.218 245.545 102.812 236.67 94.5721C227.796 86.3322 216.031 81.923 203.927 82.3009C194.152 82.1123 184.56 84.963 176.474 90.4593C168.388 95.9556 162.208 103.827 158.787 112.985C148.443 114.238 138.889 119.156 131.859 126.848C124.83 134.54 120.79 144.496 120.471 154.911C120.921 166.609 125.99 177.651 134.567 185.616C143.144 193.582 154.53 197.823 166.229 197.407L170.266 197.249H244.413C245.078 197.238 245.738 197.137 246.376 196.948C255.878 196.874 264.987 193.14 271.807 186.523C278.628 179.906 282.636 170.899 282.998 161.403Z" fill="url(#paint1_linear_30_67)"/>
<defs>
<linearGradient id="paint0_linear_30_67" x1="238.5" y1="168.957" x2="60.9633" y2="-6.30278" gradientUnits="userSpaceOnUse">
<stop stop-color="#9D70EE"/>
<stop offset="0.619792" stop-color="#FFB3BB"/>
<stop offset="1" stop-color="#FFE399"/>
</linearGradient>
<linearGradient id="paint1_linear_30_67" x1="235.547" y1="188.905" x2="119.977" y2="42.7544" gradientUnits="userSpaceOnUse">
<stop offset="0.119792" stop-color="#7277ED"/>
<stop offset="0.53125" stop-color="#8DC8E8"/>
</linearGradient>
</defs>
</svg>
