<svg width="283" height="214" viewBox="0 0 283 214" fill="none" xmlns="http://www.w3.org/2000/svg">
<path d="M0 51.8215H245.009V187.545C245.009 189.702 244.148 191.77 242.615 193.297C241.082 194.823 239.002 195.682 236.831 195.687H8.19377C6.02064 195.687 3.93653 194.829 2.3999 193.302C0.863269 191.775 0 189.705 0 187.545V51.8215Z" fill="url(#paint0_linear_30_52)"/>
<path d="M8.22528 0H236.784C237.859 -1.98317e-06 238.924 0.210688 239.917 0.620015C240.91 1.02934 241.813 1.62927 242.572 2.38546C243.332 3.14165 243.934 4.03926 244.344 5.02691C244.754 6.01455 244.964 7.07286 244.962 8.14124V51.8221H0V8.14124C0 5.98205 0.863269 3.91129 2.3999 2.38451C3.93653 0.857734 6.02064 0 8.19376 0H8.22528Z" fill="#9D70EE"/>
<path d="M28.7883 133.594V73.6152C28.7883 72.0496 29.7338 70.7501 30.8998 70.7501H115.012C116.178 70.7501 117.123 72.0339 117.123 73.6152V133.594C117.123 135.16 116.178 136.444 115.012 136.444H30.8998C29.7338 136.444 28.7883 135.176 28.7883 133.594Z" fill="#140035"/>
<path d="M112.286 176.853H33.6258C30.9471 176.853 28.7883 175.569 28.7883 174.003V154.073C28.7883 152.507 30.9471 151.224 33.6258 151.224H112.286C114.965 151.224 117.123 152.492 117.123 154.073V173.941C117.123 175.506 114.965 176.853 112.286 176.853Z" fill="#140035"/>
<path d="M220.284 94.5006H138.772C135.999 94.5006 133.761 93.2324 133.761 91.6511V71.9713C133.761 70.4056 135.999 69.1218 138.772 69.1218H220.284C223.057 69.1218 225.295 70.39 225.295 71.9713V91.6511C225.279 93.2324 223.042 94.5006 220.284 94.5006Z" fill="#140035"/>
<path d="M277.69 197.425L226.054 173.549C224.866 173.059 223.868 172.202 223.207 171.106C222.546 170.009 222.257 168.731 222.382 167.459V159.224C222.266 157.951 222.559 156.674 223.218 155.577C223.878 154.48 224.871 153.619 226.054 153.118L277.69 129.258C280.448 128.553 283 131.481 283 135.348V191.319C283 195.202 280.416 198.114 277.69 197.425Z" fill="#8DC8E8"/>
<path d="M244.065 112.694H140.382C137.032 112.694 134.316 115.393 134.316 118.722V207.211C134.316 210.54 137.032 213.238 140.382 213.238H244.065C247.416 213.238 250.132 210.54 250.132 207.211V118.722C250.132 115.393 247.416 112.694 244.065 112.694Z" fill="url(#paint1_linear_30_52)"/>
<path d="M169.706 163.341V141.751C169.706 140.701 169.984 139.669 170.512 138.76C171.04 137.85 171.8 137.095 172.715 136.569C173.63 136.044 174.668 135.768 175.725 135.767C176.782 135.767 177.82 136.044 178.735 136.569L197.644 147.372L216.458 158.159C217.371 158.686 218.128 159.443 218.654 160.352C219.18 161.261 219.457 162.292 219.457 163.341C219.457 164.39 219.18 165.42 218.654 166.33C218.128 167.239 217.371 167.995 216.458 168.523L197.644 179.31L178.735 190.113C177.818 190.639 176.777 190.916 175.717 190.914C174.658 190.913 173.617 190.634 172.701 190.105C171.785 189.576 171.026 188.816 170.5 187.902C169.974 186.988 169.7 185.952 169.706 184.899V163.341Z" fill="white"/>
<defs>
<linearGradient id="paint0_linear_30_52" x1="237.648" y1="169.145" x2="67.6181" y2="-5.44205" gradientUnits="userSpaceOnUse">
<stop stop-color="#9D70EE"/>
<stop offset="0.619792" stop-color="#FFB3BB"/>
<stop offset="1" stop-color="#FFE399"/>
</linearGradient>
<linearGradient id="paint1_linear_30_52" x1="216.318" y1="205.79" x2="112.672" y2="98.8145" gradientUnits="userSpaceOnUse">
<stop stop-color="#7277ED"/>
<stop offset="0.5" stop-color="#8DC8E8"/>
</linearGradient>
</defs>
</svg>
