<svg width="283" height="240" viewBox="0 0 283 240" fill="none" xmlns="http://www.w3.org/2000/svg">
<path d="M201.418 0H200.6H12.342H11.5559C8.65541 0.00803951 5.86255 1.09917 3.72482 3.05948C1.5871 5.01979 0.258679 7.70789 0 10.5968L0 139.346C0.240299 142.244 1.55953 144.945 3.6966 146.916C5.83367 148.887 8.63285 149.984 11.5401 149.99H74.2719C74.756 149.993 75.2216 150.176 75.5767 150.505C75.9318 150.834 76.1507 151.284 76.19 151.767V173.621C76.2703 174.347 76.5422 175.039 76.9779 175.625C77.4135 176.211 77.9973 176.671 78.6693 176.958C79.3413 177.244 80.0774 177.347 80.8021 177.255C81.5268 177.163 82.214 176.88 82.7934 176.435L122.319 150.336C122.69 150.099 123.121 149.974 123.561 149.975H201.402C204.311 149.969 207.112 148.873 209.252 146.902C211.391 144.931 212.714 142.229 212.958 139.331V10.5968C212.706 7.7079 211.382 5.01788 209.246 3.05656C207.111 1.09524 204.318 0.00479288 201.418 0Z" fill="url(#paint0_linear_30_63)"/>
<path d="M151.329 57.3867C154.113 57.3836 156.836 58.2066 159.153 59.7516C161.469 61.2966 163.275 63.4941 164.342 66.066C165.409 68.6378 165.689 71.4684 165.147 74.1995C164.604 76.9305 163.264 79.4393 161.295 81.4081C159.326 83.377 156.817 84.7175 154.086 85.2599C151.355 85.8024 148.525 85.5224 145.953 84.4554C143.381 83.3884 141.183 81.5824 139.638 79.266C138.093 76.9495 137.27 74.2268 137.273 71.4424C137.273 67.7146 138.754 64.1395 141.39 61.5035C144.026 58.8676 147.601 57.3867 151.329 57.3867ZM92.4178 71.6311C92.4333 74.4107 93.2718 77.1235 94.8274 79.4272C96.383 81.7309 98.586 83.5222 101.159 84.5752C103.731 85.6282 106.558 85.8957 109.282 85.3439C112.007 84.7921 114.507 83.4457 116.467 81.4747C118.427 79.5037 119.759 76.9963 120.296 74.2689C120.832 71.5415 120.549 68.7162 119.482 66.1496C118.415 63.5829 116.611 61.3899 114.299 59.8472C111.986 58.3044 109.269 57.4811 106.489 57.4811C104.635 57.481 102.798 57.8476 101.086 58.5596C99.3737 59.2717 97.819 60.3152 96.5113 61.6302C95.2037 62.9452 94.1688 64.5057 93.4663 66.222C92.7638 67.9384 92.4075 69.7766 92.4178 71.6311ZM47.5622 71.6311C47.5778 74.4114 48.4166 77.1248 49.9729 79.4288C51.5292 81.7328 53.7332 83.5242 56.3066 84.5767C58.8801 85.6292 61.7077 85.8957 64.4325 85.3427C67.1573 84.7896 69.6572 83.4417 71.6166 81.4691C73.5761 79.4965 74.9072 76.9877 75.4421 74.2592C75.9769 71.5308 75.6914 68.705 74.6217 66.1387C73.552 63.5723 71.746 61.3804 69.4316 59.8395C67.1173 58.2987 64.3983 57.478 61.6179 57.4811C59.7647 57.4831 57.9302 57.8512 56.2196 58.5642C54.5091 59.2772 52.9562 60.321 51.6502 61.6358C50.3442 62.9506 49.3107 64.5104 48.6092 66.2257C47.9077 67.941 47.5519 69.7779 47.5622 71.6311Z" fill="#140035"/>
<path d="M272.605 89.8061H223.961V139.803V140.259C223.463 145.906 220.873 151.164 216.699 155C212.525 158.837 207.069 160.975 201.399 160.997H126.168L103.748 175.775V207.141C103.961 209.697 105.17 212.068 107.114 213.741C109.058 215.414 111.582 216.257 114.141 216.087H182.957C183.331 216.087 183.698 216.196 184.011 216.402L217.279 238.334C218.008 238.892 218.927 239.139 219.838 239.022C220.748 238.904 221.574 238.431 222.137 237.705C222.527 237.2 222.767 236.595 222.829 235.96V217.565C222.84 217.351 222.895 217.142 222.991 216.95C223.086 216.759 223.219 216.588 223.383 216.45C223.546 216.312 223.736 216.208 223.941 216.146C224.146 216.083 224.361 216.063 224.574 216.087H272.605C275.168 216.261 277.696 215.418 279.642 213.74C281.587 212.063 282.793 209.686 282.998 207.126V98.7521C282.789 96.1944 281.581 93.8218 279.636 92.1477C277.692 90.4735 275.166 89.6323 272.605 89.8061Z" fill="url(#paint1_linear_30_63)"/>
<defs>
<linearGradient id="paint0_linear_30_63" x1="206.56" y1="144.58" x2="7.41154" y2="0.351347" gradientUnits="userSpaceOnUse">
<stop offset="0.0989583" stop-color="#9D70EE"/>
<stop offset="0.661458" stop-color="#FFB3BB"/>
<stop offset="1" stop-color="#FFE399"/>
</linearGradient>
<linearGradient id="paint1_linear_30_63" x1="230.665" y1="227.993" x2="77.1281" y2="62.7862" gradientUnits="userSpaceOnUse">
<stop stop-color="#7277ED"/>
<stop offset="0.421875" stop-color="#8DC8E8"/>
</linearGradient>
</defs>
</svg>
