
<svg width="262" height="197" viewBox="0 0 262 197" fill="none" xmlns="http://www.w3.org/2000/svg">
<path d="M0 47.833H225.999V173.026C225.999 175.015 225.205 176.923 223.791 178.331C222.377 179.739 220.458 180.532 218.456 180.536H7.55802C5.55351 180.536 3.6311 179.745 2.21369 178.336C0.796289 176.928 0 175.018 0 173.026V47.833Z" fill="url(#paint0_linear_713_620)"/>
<path d="M7.58709 0.0322266H218.412C219.404 0.0322247 220.386 0.226567 221.302 0.604135C222.219 0.981704 223.051 1.53509 223.751 2.2326C224.452 2.93012 225.007 3.75808 225.386 4.6691C225.764 5.58012 225.958 6.55631 225.956 7.5418V47.8335H0V7.5418C0 5.55014 0.796289 3.64005 2.21369 2.23173C3.6311 0.82341 5.55351 0.0322266 7.55802 0.0322266H7.58709Z" fill="#9D70EE"/>
<path d="M26.5547 123.261V67.9358C26.5547 66.4916 27.4268 65.293 28.5023 65.293H106.088C107.164 65.293 108.036 66.4772 108.036 67.9358V123.261C108.036 124.705 107.164 125.889 106.088 125.889H28.5023C27.4268 125.889 26.5547 124.72 26.5547 123.261Z" fill="#140035"/>
<path d="M103.574 163.163H31.0168C28.5459 163.163 26.5547 161.979 26.5547 160.535V142.151C26.5547 140.707 28.5459 139.522 31.0168 139.522H103.574C106.045 139.522 108.036 140.692 108.036 142.151V160.477C108.036 161.921 106.045 163.163 103.574 163.163Z" fill="#140035"/>
<path d="M203.195 87.2007H128.007C125.449 87.2007 123.385 86.0309 123.385 84.5723V66.4194C123.385 64.9752 125.449 63.791 128.007 63.791H203.195C205.753 63.791 207.817 64.9608 207.817 66.4194V84.5723C207.802 86.0309 205.738 87.2007 203.195 87.2007Z" fill="#140035"/>
<path d="M256.145 182.139L208.515 160.116C207.419 159.664 206.498 158.874 205.889 157.862C205.279 156.851 205.012 155.672 205.128 154.498V146.902C205.021 145.728 205.291 144.55 205.899 143.538C206.508 142.526 207.423 141.732 208.515 141.27L256.145 119.261C258.688 118.611 261.043 121.312 261.043 124.879V176.507C261.043 180.089 258.659 182.775 256.145 182.139Z" fill="#1490DF"/>
<path d="M225.127 103.982H129.489C126.399 103.982 123.894 106.472 123.894 109.542V191.166C123.894 194.236 126.399 196.726 129.489 196.726H225.127C228.218 196.726 230.723 194.236 230.723 191.166V109.542C230.723 106.472 228.218 103.982 225.127 103.982Z" fill="url(#paint1_linear_713_620)"/>
<path d="M156.538 150.7V130.785C156.538 129.816 156.794 128.865 157.281 128.026C157.768 127.187 158.469 126.49 159.313 126.005C160.157 125.521 161.115 125.266 162.09 125.266C163.065 125.266 164.022 125.52 164.867 126.005L182.308 135.969L199.662 145.92C200.504 146.406 201.202 147.104 201.688 147.943C202.173 148.781 202.429 149.732 202.429 150.7C202.429 151.667 202.173 152.618 201.688 153.457C201.202 154.295 200.504 154.993 199.662 155.48L182.308 165.43L164.867 175.395C164.02 175.88 163.06 176.135 162.082 176.134C161.105 176.132 160.146 175.875 159.301 175.387C158.456 174.899 157.755 174.198 157.27 173.355C156.785 172.512 156.533 171.557 156.538 170.586V150.7Z" fill="white"/>
<defs>
<linearGradient id="paint0_linear_713_620" x1="226.333" y1="180.782" x2="0.333361" y2="47.7822" gradientUnits="userSpaceOnUse">
<stop offset="0.001" stop-color="#9D70EE"/>
<stop offset="0.203125" stop-color="#9D70EE"/>
<stop offset="0.625" stop-color="#CF92F3"/>
<stop offset="0.901042" stop-color="#FFB3F7"/>
</linearGradient>
<linearGradient id="paint1_linear_713_620" x1="124.334" y1="103.782" x2="226.834" y2="196.782" gradientUnits="userSpaceOnUse">
<stop stop-color="#1490DF"/>
<stop offset="0.307292" stop-color="#1490DF"/>
<stop offset="1" stop-color="#68C4FF"/>
</linearGradient>
</defs>
</svg>