
<svg width="259" height="201" viewBox="0 0 259 201" fill="none" xmlns="http://www.w3.org/2000/svg">
<path d="M207.886 97.4902H52.3516V167.531C52.3516 185.728 87.1555 200.602 130.913 200.602C174.671 200.602 209.475 186.161 209.475 167.531L207.886 97.4902Z" fill="url(#paint0_linear_713_614)"/>
<path d="M120.371 1.59829L4.83938 60.6639C2.62284 62.0421 1.01532 64.2137 0.344479 66.7361C-0.326364 69.2585 -0.0100288 71.9417 1.22901 74.2389C1.98573 75.9275 3.24701 77.3401 4.83938 78.2825L120.371 128.539C122.038 129.25 123.831 129.617 125.642 129.617C127.454 129.617 129.247 129.25 130.914 128.539L253.377 77.9937C255.642 76.6607 257.318 74.5197 258.068 72.0012C258.818 69.4828 258.587 66.7736 257.421 64.4187C256.594 62.5638 255.171 61.0387 253.377 60.0863L131.202 1.30946C129.492 0.536183 127.63 0.160444 125.754 0.210469C123.878 0.260494 122.037 0.734983 120.371 1.59829Z" fill="url(#paint1_linear_713_614)"/>
<path d="M227.96 117.708C226.73 114.782 225.803 112.249 224.639 110.198C216.421 95.7197 203.617 84.389 188.246 77.9939L137.99 57.0537L121.96 68.4625L172.505 89.9803C190.106 97.1748 204.201 110.959 211.786 128.395C214.006 136.312 215.362 144.447 215.83 152.656M215.83 152.656L224.206 140.67L231.803 149.782L233.303 151.782C234.048 140.577 232.314 128.06 227.96 117.708L215.83 152.656Z" fill="url(#paint2_linear_713_614)"/>
<path d="M128.314 73.5174C139.002 73.5174 147.666 69.1207 147.666 63.6972C147.666 58.2736 139.002 53.877 128.314 53.877C117.627 53.877 108.963 58.2736 108.963 63.6972C108.963 69.1207 117.627 73.5174 128.314 73.5174Z" fill="#140035"/>
<defs>
<linearGradient id="paint0_linear_713_614" x1="130.803" y1="107.282" x2="130.871" y2="222.067" gradientUnits="userSpaceOnUse">
<stop offset="0.13" stop-color="#9D70EE"/>
<stop offset="0.23" stop-color="#9D70EE"/>
<stop offset="1" stop-color="#FFB3F7"/>
</linearGradient>
<linearGradient id="paint1_linear_713_614" x1="129.181" y1="-42.4482" x2="129.181" y2="156.555" gradientUnits="userSpaceOnUse">
<stop offset="0.13" stop-color="#9D70EE"/>
<stop offset="0.23" stop-color="#9D70EE"/>
<stop offset="0.421875" stop-color="#9D70EE"/>
<stop offset="0.828125" stop-color="#FFB3F7"/>
<stop offset="1" stop-color="#FFB3F7"/>
</linearGradient>
<linearGradient id="paint2_linear_713_614" x1="177.72" y1="152.699" x2="177.72" y2="57.0723" gradientUnits="userSpaceOnUse">
<stop stop-color="#1490DF"/>
<stop offset="0.307292" stop-color="#1490DF"/>
<stop offset="1" stop-color="#68C4FF"/>
</linearGradient>
</defs>
</svg>
