<svg xmlns="http://www.w3.org/2000/svg" viewBox="0 0 2048 2048">
  <path d="M1664 896q79 0 149 30t122 82 82 123 30 149q0 80-30 149t-82 122-122 83-149 30q-60 0-116-18t-106-54l-437 437q-19 19-45 19t-45-19-19-45q0-26 19-45l437-437q-35-49-53-105t-19-117q0-79 30-149t82-122 122-83 150-30zm0 640q53 0 99-20t82-55 55-81 20-100q0-53-20-99t-55-82-81-55-100-20q-53 0-99 20t-82 55-55 81-20 100q0 53 20 99t55 82 81 55 100 20zm-512 0H512q-106 0-199-40t-162-110-110-163-40-199q0-106 40-199t109-162 163-110 199-41q46 0 93 9 40-61 93-110t115-83 132-53 143-19q110 0 208 39t176 108 127 162 62 203q-33 0-65 5t-65 15q-8-86-46-160t-97-128-137-85-163-31q-70 0-135 21t-119 59-97 91-67 120q-75-35-158-35-80 0-149 30t-122 82-83 123-30 149q0 80 30 149t82 122 122 83 150 30h640v128z" />
</svg>