<svg xmlns="http://www.w3.org/2000/svg" viewBox="0 0 2048 2048">
  <path d="M256 448v-8q0-91 36-171t98-140 143-94T704 0q92 0 173 35t143 97 96 142 36 174q0 92-35 173t-97 143-142 96-174 36q-92 0-173-35t-143-97-96-142-36-174zm768 0v-7q0-65-26-122t-70-99-102-67-122-25q-67 0-125 25t-101 68-69 102-25 125q0 67 25 125t68 101 102 69 125 25q67 0 125-25t101-68 69-102 25-125zm256 128v-7q0-65 26-122t70-99 102-67 122-25q67 0 125 25t101 68 69 102 25 125q0 67-25 125t-68 101-102 69-125 25q-67 0-125-25t-101-68-69-102-25-125zm512 0q0-39-15-74t-41-61-62-42-74-15q-39 0-74 15t-61 41-42 62-15 74q0 39 15 74t41 61 62 42 74 15q39 0 74-15t61-41 42-62 15-74zm-700 1371q0-9 2-16t4-16l89-284-232-176q-39-30-39-79 0-19 7-36t20-30 30-22 36-8h287l89-285q9-29 32-48t56-19q31 0 55 19t34 48l89 285h287q19 0 35 8t30 21 20 30 8 36q0 23-10 44t-29 36l-232 176 89 284q5 17 5 31 0 19-7 36t-19 31-30 20-36 8q-14 0-29-4t-27-13l-233-176-232 176q-11 8-26 12t-30 5q-19 0-36-7t-29-21-20-30-8-36zM-1 1259q0-46 15-85t43-70 64-50 81-29h2l3-1h994q8 0 19 3t19 5l-37 120H217q-18 0-34 10t-29 26-19 35-8 35q0 137 41 237t116 167 182 98 238 32q82 0 163-13t155-51q-12 39-23 78t-25 78q-66 19-133 27t-137 9q-159 0-289-42t-222-125-143-207-51-287z" />
</svg>