<svg width="430" height="318" viewBox="0 0 430 318" fill="none" xmlns="http://www.w3.org/2000/svg">
<path d="M310.256 92.7486C310.256 82.3523 306.126 72.3819 298.775 65.0306C291.424 57.6793 281.454 53.5493 271.057 53.5491H270.209C267.903 40.5051 261.076 28.6901 250.927 20.1778C240.778 11.6656 227.955 7 214.708 7C201.462 7 188.639 11.6656 178.49 20.1778C168.341 28.6901 161.514 40.5051 159.208 53.5491H158.359C153.207 53.5418 148.104 54.5504 143.342 56.5171C138.579 58.4838 134.252 61.37 130.606 65.0107C126.96 68.6514 124.067 72.9752 122.094 77.7346C120.121 82.4941 119.105 87.5959 119.105 92.7483C119.105 97.9007 120.121 103.003 122.094 107.762C124.067 112.521 126.96 116.845 130.606 120.486C134.252 124.127 138.579 127.013 143.342 128.98C148.104 130.946 153.207 131.955 158.359 131.948H167.315L167.289 131.992H194.317L194.343 131.948H219.196L206.767 110.426L214.707 96.6742L278.684 207.454C283.543 201.013 289.494 195.476 296.268 191.094L262.11 131.948H271.057C281.453 131.947 291.424 127.818 298.775 120.466C306.126 113.115 310.256 103.145 310.256 92.7486Z" fill="url(#paint0_linear_4311_440)"/>
<path d="M151.897 239.237H151.048C149.798 232.372 147.262 225.805 143.573 219.881L186.94 144.767H159.912L88.7919 267.944L72.9135 267.937L114.463 195.976C106.744 193.216 98.5162 192.174 90.3534 192.924C82.1906 193.673 74.2899 196.196 67.2033 200.316C60.1166 204.436 54.015 210.053 49.3246 216.776C44.6342 223.498 41.4682 231.164 40.0478 239.237H39.1992C28.8029 239.237 18.8324 243.367 11.4812 250.718C4.1299 258.07 -7.62939e-06 268.04 -7.62939e-06 278.436C-7.62939e-06 288.833 4.1299 298.803 11.4812 306.154C18.8324 313.506 28.8029 317.636 39.1992 317.636H151.897C162.293 317.636 172.264 313.506 179.615 306.154C186.966 298.803 191.096 288.833 191.096 278.436C191.096 268.04 186.966 258.07 179.615 250.718C172.264 243.367 162.293 239.237 151.897 239.237V239.237Z" fill="url(#paint1_linear_4311_440)"/>
<path d="M390.216 239.237H389.367C387.061 226.193 380.234 214.378 370.085 205.866C359.936 197.354 347.113 192.688 333.867 192.688C320.621 192.688 307.798 197.354 297.648 205.866C287.499 214.378 280.673 226.193 278.367 239.237H277.518C271.405 239.248 265.38 240.695 259.929 243.461C254.477 246.227 249.752 250.235 246.133 255.162H306.235L306.444 255.523L313.578 267.906L202.649 267.928C204.364 275.658 204.184 283.689 202.127 291.336L240.665 291.328C243.317 298.997 248.289 305.649 254.893 310.363C261.497 315.077 269.404 317.619 277.518 317.636H390.216C400.612 317.636 410.582 313.506 417.934 306.155C425.285 298.803 429.415 288.833 429.415 278.436C429.415 268.04 425.285 258.07 417.934 250.718C410.582 243.367 400.612 239.237 390.216 239.237V239.237Z" fill="url(#paint2_linear_4311_440)"/>
<defs>
<linearGradient id="paint0_linear_4311_440" x1="104" y1="-139" x2="282.5" y2="198" gradientUnits="userSpaceOnUse">
<stop stop-color="#0078D4"/>
<stop offset="0.854013" stop-color="#8661C5"/>
</linearGradient>
<linearGradient id="paint1_linear_4311_440" x1="48" y1="361.5" x2="191" y2="108" gradientUnits="userSpaceOnUse">
<stop stop-color="#0078D4"/>
<stop offset="0.590978" stop-color="#8661C5"/>
</linearGradient>
<linearGradient id="paint2_linear_4311_440" x1="525" y1="275" x2="219.5" y2="278.5" gradientUnits="userSpaceOnUse">
<stop stop-color="#0078D4"/>
<stop offset="0.835319" stop-color="#8661C5"/>
</linearGradient>
</defs>
</svg>
