<svg xmlns="http://www.w3.org/2000/svg" viewBox="0 0 2048 2048">
  <path d="M384 640H256V512h128v128zm0 256H256V768h128v128zm-128 128h128v128H256v-128zm1536-384h-128V512h128v128zm256-512v593q-59-41-128-62V256h-128v128h-128V256H384v128H256V256H128v1152h128v-128h128v128h531q-9 32-14 64t-5 64H0V128h2048zm-141 1079q66 45 103 115t38 150h-128q0-40-15-75t-41-61-61-41-75-15q-40 0-75 15t-61 41-41 61-15 75q0 52-20 99t-57 84q66 45 103 115t38 150h-128q0-40-15-75t-41-61-61-41-75-15q-40 0-75 15t-61 41-41 61-15 75H960q0-80 37-150t104-115q-37-36-57-83t-20-100q0-53 20-99t55-82 81-55 100-20q51 0 99 20t84 57q35-51 86-86-36-36-56-84t-21-99q0-53 20-99t55-82 81-55 100-20q53 0 99 20t82 55 55 81 20 100q0 51-20 99t-57 84zm-627 393q27 0 50-10t40-27 28-41 10-50q0-27-10-50t-27-40-41-28-50-10q-27 0-50 10t-40 27-28 41-10 50q0 27 10 50t27 40 41 28 50 10zm320-576q0 27 10 50t27 40 41 28 50 10q27 0 50-10t40-27 28-41 10-50q0-27-10-50t-27-40-41-28-50-10q-27 0-50 10t-40 27-28 41-10 50z" />
</svg>